<svg width="1280" height="479" viewBox="0 0 1280 479" fill="none" xmlns="http://www.w3.org/2000/svg">
<g clip-path="url(#clip0_151_44)">
<path d="M598 112.999C598.575 113.634 599.151 114.268 599.743 114.922C606.135 121.479 612.122 121.899 620.805 122.048C623.863 122.058 626.919 122.029 629.977 121.999C632.115 122.006 634.253 122.017 636.391 122.032C641.99 122.06 647.589 122.041 653.189 122.012C658.914 121.99 664.638 122.014 670.363 122.034C681.576 122.066 692.787 122.044 704 121.999C704 115.399 704 108.799 704 101.999C758.12 101.999 812.24 101.999 868 101.999C868 108.599 868 115.199 868 121.999C889.12 121.999 910.24 121.999 932 121.999C932 115.399 932 108.799 932 101.999C954.44 101.999 976.88 101.999 1000 101.999C1000 108.599 1000 115.199 1000 121.999C1045.54 121.999 1091.08 121.999 1138 121.999C1138 126.289 1138 130.579 1138 134.999C1092.46 134.999 1046.92 134.999 1000 134.999C1000 143.909 1000 152.819 1000 161.999C1046.86 161.999 1093.72 161.999 1142 161.999C1142 166.289 1142 170.579 1142 174.999C1095.14 174.999 1048.28 174.999 1000 174.999C1000 183.579 1000 192.159 1000 200.999C1047.19 200.999 1094.38 200.999 1143 200.999C1143 205.289 1143 209.579 1143 213.999C1095.81 213.999 1048.62 213.999 1000 213.999C1000 222.909 1000 231.819 1000 240.999C1047.19 240.999 1094.38 240.999 1143 240.999C1143 245.289 1143 249.579 1143 253.999C1095.81 253.999 1048.62 253.999 1000 253.999C1000 262.579 1000 271.159 1000 279.999C1045.87 279.999 1091.74 279.999 1139 279.999C1139 284.289 1139 288.579 1139 292.999C1093.13 292.999 1047.26 292.999 1000 292.999C1000 300.259 1000 307.519 1000 314.999C1029.37 314.999 1058.74 314.999 1089 314.999C1089 316.319 1089 317.639 1089 318.999C1106.82 318.999 1124.64 318.999 1143 318.999C1143 323.289 1143 327.579 1143 331.999C1125.18 331.999 1107.36 331.999 1089 331.999C1089 340.909 1089 349.819 1089 358.999C1106.82 358.999 1124.64 358.999 1143 358.999C1143 363.289 1143 367.579 1143 371.999C1125.18 371.999 1107.36 371.999 1089 371.999C1089 376.949 1089 381.899 1089 386.999C1037.19 386.999 985.38 386.999 932 386.999C932 382.049 932 377.099 932 371.999C912.2 371.999 892.4 371.999 872 371.999C872 376.949 872 381.899 872 386.999C816.56 386.999 761.12 386.999 704 386.999C704 382.049 704 377.099 704 371.999C692.386 371.967 680.773 371.973 669.159 372.027C663.766 372.051 658.373 372.062 652.98 372.043C647.773 372.026 642.567 372.043 637.361 372.082C635.376 372.092 633.392 372.089 631.408 372.073C628.623 372.054 625.841 372.078 623.056 372.112C622.24 372.096 621.424 372.081 620.582 372.064C615.848 372.176 613.522 372.996 610.137 376.39C609.607 377.001 609.077 377.613 608.531 378.242C606.169 380.952 603.363 382.938 600.438 384.999C599.838 385.422 599.239 385.845 598.621 386.28C577.038 401.142 551.045 406.214 525.312 401.811C507.702 398.474 486.768 391.521 474.701 377.488C471.938 374.302 470.539 373.109 466.279 372.239C464.876 372.204 463.471 372.202 462.067 372.226C461.295 372.215 460.524 372.205 459.729 372.194C457.196 372.166 454.666 372.18 452.133 372.194C450.37 372.183 448.608 372.169 446.845 372.153C442.219 372.117 437.593 372.116 432.967 372.123C428.241 372.124 423.515 372.091 418.789 372.061C409.526 372.007 400.263 371.991 391 371.999C391.433 372.914 391.866 373.829 392.312 374.772C393.148 376.555 393.148 376.555 394 378.374C394.557 379.557 395.114 380.74 395.688 381.96C397 384.999 397 384.999 397 386.999C371.26 386.999 345.52 386.999 319 386.999C314 373.999 314 373.999 314 371.999C297.83 372.329 281.66 372.659 265 372.999C263.02 377.619 261.04 382.239 259 386.999C233.26 386.999 207.52 386.999 181 386.999C182.886 382.285 184.938 377.638 187 372.999C172.15 372.669 157.3 372.339 142 371.999C142 367.379 142 362.759 142 357.999C159.49 357.669 176.98 357.339 195 356.999C200.445 345.614 200.445 345.614 206 333.999C206.33 333.339 206.66 332.679 207 331.999C185.55 331.999 164.1 331.999 142 331.999C142 327.709 142 323.419 142 318.999C165.76 318.999 189.52 318.999 214 318.999C214.99 316.029 214.99 316.029 216 312.999C218.97 306.729 221.94 300.459 225 293.999C183.915 293.504 183.915 293.504 142 292.999C142 288.709 142 284.419 142 279.999C172.03 279.999 202.06 279.999 233 279.999C233.99 277.029 234.98 274.059 236 270.999C238.64 265.719 241.28 260.439 244 254.999C210.34 254.669 176.68 254.339 142 253.999C142 249.709 142 245.419 142 240.999C177.97 240.669 213.94 240.339 251 239.999C249.014 234.042 247.04 228.635 244.312 223.061C241 216.256 241 216.256 241 213.999C208.66 213.999 176.32 213.999 143 213.999C143 209.709 143 205.419 143 200.999C173.03 200.999 203.06 200.999 234 200.999C230.04 192.749 226.08 184.499 222 175.999C195.6 175.669 169.2 175.339 142 174.999C142 170.709 142 166.419 142 161.999C166.09 161.669 190.18 161.339 215 160.999C211.7 153.739 208.4 146.479 205 138.999C204.505 137.019 204.505 137.019 204 134.999C183.87 134.999 163.74 134.999 143 134.999C143 130.709 143 126.419 143 121.999C160.82 121.999 178.64 121.999 197 121.999C194.03 115.729 191.06 109.459 188 102.999C188 102.669 188 102.339 188 101.999C213.74 101.999 239.48 101.999 266 101.999C273 118.999 273 118.999 273 121.999C285.54 121.669 298.08 121.339 311 120.999C313.262 115.121 313.262 115.121 315.517 109.241C315.94 108.149 315.94 108.149 316.371 107.034C316.659 106.285 316.947 105.536 317.244 104.765C318 102.999 318 102.999 319 101.999C321.434 101.904 323.839 101.873 326.274 101.885C327.035 101.885 327.796 101.885 328.58 101.885C331.106 101.885 333.633 101.893 336.16 101.901C337.908 101.903 339.655 101.904 341.402 101.905C346.01 101.909 350.618 101.919 355.227 101.93C359.925 101.94 364.624 101.945 369.322 101.95C378.548 101.961 387.774 101.978 397 101.999C394.03 108.269 391.06 114.539 388 120.999C399.119 121.226 410.236 121.409 421.357 121.517C426.522 121.569 431.685 121.639 436.849 121.753C441.842 121.863 446.833 121.922 451.827 121.948C453.723 121.966 455.618 122.002 457.513 122.056C469.174 122.377 476.762 121.574 485.484 113.401C486.314 112.608 487.145 111.816 488 110.999C519.616 88.7943 566.532 93.0068 598 112.999Z" fill="#D8251C"/>
<path d="M598 112.999C598.58 113.634 599.161 114.268 599.759 114.922C606.11 121.401 611.948 121.897 620.562 122.048C623.555 122.058 626.546 122.029 629.539 121.999C631.632 122.006 633.725 122.017 635.819 122.032C641.3 122.06 646.78 122.041 652.261 122.012C657.866 121.99 663.47 122.014 669.074 122.034C680.05 122.066 691.025 122.048 702 121.999C702 122.329 702 122.659 702 122.999C671.64 122.999 641.28 122.999 610 122.999C610 123.659 610 124.319 610 124.999C609.01 125.329 608.02 125.659 607 125.999C608.098 128.992 608.677 129.845 611.625 131.249C612.409 131.496 613.193 131.744 614 131.999C614.33 134.969 614.66 137.939 615 140.999C614.34 140.339 613.68 139.679 613 138.999C612.31 138.314 612.31 138.314 611.605 137.616C610.468 136.47 609.347 135.306 608.238 134.132C591.93 117.129 569.016 108.387 545.633 107.698C543.464 107.679 541.294 107.675 539.125 107.686C537.985 107.691 536.846 107.696 535.671 107.701C512.362 108.025 491.519 117.525 475 133.999C462.596 147.249 453.907 162.903 448 179.999C447.619 181.096 447.619 181.096 447.231 182.215C441.033 200.479 437.465 219.701 437 238.999C436.98 239.719 436.959 240.438 436.938 241.18C435.831 284.831 443.594 331.451 474.09 364.586C490.725 381.95 514.732 391.418 538.594 392.202C559.49 392.537 577.3 388.439 595 376.999C595.66 376.669 596.32 376.339 597 375.999C596.372 378.928 595.414 381.36 594 383.999C594.33 384.329 594.66 384.659 595 384.999C595.103 384.359 595.206 383.72 595.312 383.061C595.539 382.381 595.766 381.7 596 380.999C596.99 380.669 597.98 380.339 599 379.999C601.188 381.436 601.188 381.436 603 382.999C581.648 399.185 556.187 405.88 529.602 402.499C510.551 399.649 487.671 392.572 474.701 377.488C471.938 374.302 470.539 373.109 466.279 372.239C464.876 372.204 463.471 372.202 462.067 372.226C461.295 372.215 460.524 372.205 459.729 372.194C457.196 372.166 454.666 372.18 452.133 372.194C450.37 372.183 448.608 372.169 446.845 372.153C442.219 372.117 437.593 372.116 432.967 372.123C428.241 372.124 423.515 372.091 418.789 372.061C409.526 372.007 400.263 371.991 391 371.999C391.433 372.914 391.866 373.829 392.312 374.772C393.148 376.555 393.148 376.555 394 378.374C394.557 379.557 395.114 380.74 395.688 381.96C397 384.999 397 384.999 397 386.999C371.26 386.999 345.52 386.999 319 386.999C314 373.999 314 373.999 314 371.999C297.83 372.329 281.66 372.659 265 372.999C263.02 377.619 261.04 382.239 259 386.999C233.26 386.999 207.52 386.999 181 386.999C182.886 382.285 184.938 377.638 187 372.999C172.15 372.669 157.3 372.339 142 371.999C142 367.379 142 362.759 142 357.999C159.49 357.669 176.98 357.339 195 356.999C200.445 345.614 200.445 345.614 206 333.999C206.33 333.339 206.66 332.679 207 331.999C185.55 331.999 164.1 331.999 142 331.999C142 327.709 142 323.419 142 318.999C165.76 318.999 189.52 318.999 214 318.999C214.99 316.029 214.99 316.029 216 312.999C218.97 306.729 221.94 300.459 225 293.999C183.915 293.504 183.915 293.504 142 292.999C142 288.709 142 284.419 142 279.999C172.03 279.999 202.06 279.999 233 279.999C233.99 277.029 234.98 274.059 236 270.999C238.64 265.719 241.28 260.439 244 254.999C210.34 254.669 176.68 254.339 142 253.999C142 249.709 142 245.419 142 240.999C177.97 240.669 213.94 240.339 251 239.999C249.014 234.042 247.04 228.635 244.312 223.061C241 216.256 241 216.256 241 213.999C208.66 213.999 176.32 213.999 143 213.999C143 209.709 143 205.419 143 200.999C173.03 200.999 203.06 200.999 234 200.999C230.04 192.749 226.08 184.499 222 175.999C195.6 175.669 169.2 175.339 142 174.999C142 170.709 142 166.419 142 161.999C166.09 161.669 190.18 161.339 215 160.999C211.7 153.739 208.4 146.479 205 138.999C204.505 137.019 204.505 137.019 204 134.999C183.87 134.999 163.74 134.999 143 134.999C143 130.709 143 126.419 143 121.999C160.82 121.999 178.64 121.999 197 121.999C194.03 115.729 191.06 109.459 188 102.999C188 102.669 188 102.339 188 101.999C213.74 101.999 239.48 101.999 266 101.999C273 118.999 273 118.999 273 121.999C285.54 121.669 298.08 121.339 311 120.999C313.262 115.121 313.262 115.121 315.517 109.241C315.94 108.149 315.94 108.149 316.371 107.034C316.659 106.285 316.947 105.536 317.244 104.765C318 102.999 318 102.999 319 101.999C321.434 101.904 323.839 101.873 326.274 101.885C327.035 101.885 327.796 101.885 328.58 101.885C331.106 101.885 333.633 101.893 336.16 101.901C337.908 101.903 339.655 101.904 341.402 101.905C346.01 101.909 350.618 101.919 355.227 101.93C359.925 101.94 364.624 101.945 369.322 101.95C378.548 101.961 387.774 101.978 397 101.999C394.03 108.269 391.06 114.539 388 120.999C399.119 121.226 410.236 121.409 421.357 121.517C426.522 121.569 431.685 121.639 436.849 121.753C441.842 121.863 446.833 121.922 451.827 121.948C453.723 121.966 455.618 122.002 457.513 122.056C469.174 122.377 476.762 121.574 485.484 113.401C486.314 112.608 487.145 111.816 488 110.999C519.616 88.7943 566.532 93.0068 598 112.999Z" fill="#D8261D"/>
<path d="M137.794 44.6226C139.565 44.6194 141.336 44.615 143.108 44.6093C147.96 44.5977 152.813 44.6046 157.665 44.6147C162.95 44.6223 168.235 44.6125 173.52 44.605C182.778 44.5941 192.035 44.5944 201.293 44.6021C215.06 44.6134 228.827 44.6076 242.594 44.5985C265.757 44.5836 288.921 44.583 312.085 44.5912C312.79 44.5914 313.494 44.5917 314.221 44.592C314.927 44.5922 315.633 44.5924 316.36 44.5927C337.88 44.6003 359.4 44.6022 380.92 44.5986C382.362 44.5984 383.803 44.5982 385.245 44.5979C391.039 44.597 396.833 44.5961 402.626 44.5951C418.822 44.5923 435.018 44.5906 451.214 44.5897C452.32 44.5896 452.32 44.5896 453.449 44.5896C476.945 44.5884 500.442 44.5917 523.939 44.5983C524.701 44.5985 525.463 44.5987 526.248 44.5989C538.622 44.6023 550.996 44.606 563.37 44.6097C612.437 44.6242 661.503 44.6236 710.57 44.609C722.934 44.6053 735.299 44.6017 747.663 44.5983C748.424 44.598 749.185 44.5978 749.97 44.5976C773.44 44.5911 796.91 44.5884 820.379 44.5897C821.116 44.5897 821.853 44.5898 822.613 44.5898C838.792 44.5908 854.972 44.5927 871.152 44.5954C876.941 44.5964 882.731 44.5974 888.52 44.5983C889.961 44.5985 891.401 44.5988 892.841 44.599C914.352 44.6026 935.864 44.5995 957.375 44.592C958.079 44.5917 958.784 44.5915 959.51 44.5912C960.565 44.5908 960.565 44.5908 961.641 44.5904C985.385 44.5822 1009.13 44.5852 1032.87 44.601C1046.56 44.6098 1060.24 44.6104 1073.93 44.5991C1083.07 44.5924 1092.21 44.5966 1101.36 44.6096C1106.56 44.6167 1111.77 44.6192 1116.98 44.6084C1121.73 44.5987 1126.47 44.6029 1131.22 44.6179C1132.92 44.6209 1134.61 44.619 1136.31 44.6113C1163.22 44.4982 1185.87 51.3314 1206 70.0001C1228.09 93.0887 1234.49 120.079 1234.39 151.233C1234.39 153.427 1234.4 155.622 1234.41 157.817C1234.42 163.732 1234.41 169.647 1234.4 175.562C1234.4 181.779 1234.4 187.995 1234.41 194.211C1234.41 205.312 1234.41 216.413 1234.39 227.513C1234.38 237.548 1234.38 247.582 1234.39 257.617C1234.41 269.314 1234.41 281.01 1234.41 292.707C1234.4 298.883 1234.4 305.058 1234.41 311.234C1234.42 317.041 1234.41 322.849 1234.4 328.656C1234.39 330.776 1234.39 332.897 1234.4 335.018C1234.48 364.02 1227.16 388.856 1208 411C1207.11 412.044 1207.11 412.044 1206.2 413.109C1193.43 426.922 1174.34 435.411 1156 438C1153.54 438.089 1151.08 438.127 1148.62 438.128C1147.53 438.13 1147.53 438.13 1146.42 438.133C1143.98 438.137 1141.55 438.134 1139.11 438.132C1137.34 438.133 1135.56 438.135 1133.79 438.138C1128.9 438.143 1124.01 438.143 1119.12 438.141C1113.81 438.14 1108.5 438.145 1103.19 438.15C1092.64 438.157 1082.1 438.159 1071.55 438.16C1058.93 438.161 1046.3 438.167 1033.67 438.174C1003.87 438.19 974.078 438.196 944.282 438.201C929.122 438.203 913.963 438.207 898.804 438.211C850.18 438.223 801.557 438.234 752.933 438.237C750.609 438.238 748.285 438.238 745.961 438.238C741.3 438.238 736.639 438.239 731.977 438.239C726.52 438.239 721.063 438.24 715.606 438.24C714.045 438.24 712.483 438.24 710.921 438.24C660.761 438.244 610.602 438.259 560.442 438.282C524.401 438.299 488.359 438.315 452.318 438.319C451.577 438.319 450.836 438.319 450.072 438.319C433.799 438.321 417.526 438.323 401.252 438.323C395.429 438.323 389.606 438.323 383.783 438.324C382.335 438.324 380.886 438.324 379.438 438.324C356.359 438.325 333.28 438.335 310.201 438.349C286.306 438.364 262.411 438.368 238.516 438.36C224.739 438.356 210.962 438.36 197.186 438.375C187.985 438.385 178.784 438.384 169.584 438.374C164.34 438.368 159.097 438.368 153.853 438.38C149.079 438.392 144.305 438.389 139.531 438.376C137.818 438.373 136.106 438.376 134.393 438.384C109.364 438.497 87.8779 430.978 69.7518 413.25C58.2312 401.508 49.9436 387.222 45.1893 371.5C44.8968 370.542 44.8968 370.542 44.5985 369.564C40.7391 355.835 40.7121 342.025 40.743 327.897C40.7403 325.799 40.7367 323.701 40.7324 321.604C40.7233 315.945 40.7268 310.286 40.7331 304.627C40.7382 298.682 40.7335 292.738 40.7304 286.793C40.7267 276.814 40.7315 266.835 40.741 256.855C40.7519 245.345 40.7484 233.836 40.7374 222.326C40.7283 212.414 40.727 202.502 40.7323 192.59C40.7354 186.683 40.7358 180.776 40.7292 174.87C40.7234 169.314 40.7275 163.759 40.739 158.204C40.7416 156.175 40.7409 154.145 40.7364 152.116C40.6732 120.276 48.3577 92.3246 71.0018 69.0001C89.4942 50.4396 112.449 44.5083 137.794 44.6226ZM81.0018 82.0001C80.3057 82.6859 79.6096 83.3716 78.8924 84.0782C65.4525 98.1432 57.6632 118.198 57.7344 137.555C57.7298 138.474 57.7253 139.393 57.7206 140.34C57.708 143.398 57.7096 146.456 57.7112 149.514C57.7053 151.716 57.6985 153.918 57.6909 156.12C57.6733 162.087 57.6685 168.054 57.6673 174.022C57.6658 177.756 57.6616 181.49 57.6563 185.224C57.6387 197.596 57.6294 209.968 57.6309 222.34C57.631 223.006 57.6311 223.672 57.6312 224.358C57.6313 225.024 57.6313 225.691 57.6314 226.378C57.6322 237.166 57.6131 247.953 57.5849 258.741C57.5561 269.847 57.5427 280.953 57.5441 292.059C57.5446 298.283 57.539 304.506 57.5177 310.729C57.4983 316.589 57.4983 322.448 57.5128 328.308C57.5148 330.448 57.5102 332.588 57.498 334.727C57.3584 360.989 64.0384 384.818 83.0018 404C98.8757 418.008 114.909 422.469 135.543 422.38C137.323 422.384 139.104 422.389 140.884 422.395C145.777 422.407 150.669 422.401 155.562 422.392C160.885 422.385 166.207 422.396 171.53 422.404C180.859 422.416 190.189 422.418 199.518 422.412C213.39 422.402 227.263 422.41 241.136 422.422C266.632 422.442 292.129 422.444 317.625 422.438C321.237 422.437 324.849 422.437 328.46 422.436C329.178 422.436 329.895 422.436 330.634 422.436C346.537 422.433 362.44 422.436 378.343 422.44C380.52 422.44 382.697 422.441 384.874 422.442C390.709 422.443 396.545 422.445 402.381 422.446C443.116 422.457 483.851 422.462 524.586 422.454C525.354 422.454 526.122 422.453 526.913 422.453C535.474 422.452 544.035 422.45 552.597 422.448C553.37 422.448 554.143 422.448 554.939 422.448C559.628 422.447 559.628 422.447 564.317 422.446C613.758 422.435 663.2 422.443 712.641 422.467C725.099 422.473 737.557 422.478 750.016 422.484C750.783 422.484 751.55 422.485 752.34 422.485C775.984 422.496 799.628 422.501 823.273 422.502C824.015 422.502 824.757 422.502 825.522 422.502C841.819 422.502 858.116 422.501 874.413 422.499C880.245 422.498 886.076 422.497 891.907 422.497C893.358 422.496 894.809 422.496 896.259 422.496C919.369 422.493 942.478 422.502 965.588 422.516C989.511 422.53 1013.43 422.53 1037.36 422.513C1051.15 422.503 1064.94 422.505 1078.73 422.522C1087.95 422.532 1097.16 422.528 1106.37 422.512C1111.62 422.504 1116.87 422.501 1122.11 422.517C1126.89 422.53 1131.67 422.526 1136.45 422.506C1138.17 422.503 1139.88 422.506 1141.6 422.516C1161.76 422.631 1178.68 417.22 1193.29 402.809C1210.26 385.255 1218.17 364.045 1218.14 339.825C1218.15 338.947 1218.15 338.068 1218.15 337.163C1218.16 334.244 1218.16 331.324 1218.16 328.404C1218.17 326.301 1218.17 324.197 1218.18 322.094C1218.19 316.395 1218.2 310.697 1218.2 304.998C1218.2 301.431 1218.21 297.865 1218.21 294.298C1218.23 283.12 1218.24 271.943 1218.24 260.766C1218.25 247.897 1218.26 235.029 1218.29 222.16C1218.31 212.19 1218.32 202.22 1218.32 192.251C1218.33 186.307 1218.33 180.363 1218.35 174.419C1218.37 168.822 1218.37 163.225 1218.36 157.628C1218.36 155.585 1218.36 153.542 1218.37 151.499C1218.5 123.873 1212.43 99.9153 1192.62 79.5548C1183.04 70.483 1172.72 65.2847 1160 62.0001C1159.43 61.8228 1158.86 61.6454 1158.27 61.4627C1155.12 60.8195 1152.09 60.8731 1148.87 60.8713C1148.15 60.8695 1147.42 60.8677 1146.68 60.8659C1144.24 60.8611 1141.8 60.8635 1139.35 60.8659C1137.58 60.8639 1135.82 60.8615 1134.05 60.8587C1129.15 60.8523 1124.26 60.8522 1119.37 60.853C1114.06 60.8528 1108.74 60.8469 1103.43 60.8418C1092.88 60.8324 1082.34 60.8285 1071.79 60.8263C1059.16 60.8233 1046.53 60.8146 1033.9 60.8058C1003.37 60.785 972.839 60.7745 942.308 60.7657C932.198 60.7628 922.088 60.7594 911.978 60.7557C911.264 60.7555 910.551 60.7552 909.816 60.755C906.931 60.7539 904.046 60.7529 901.161 60.7518C851.807 60.7338 802.452 60.7185 753.098 60.7111C749.221 60.7105 745.344 60.7099 741.466 60.7093C740.697 60.7092 739.928 60.709 739.136 60.7089C731.343 60.7077 723.551 60.7065 715.758 60.7053C714.196 60.705 712.633 60.7048 711.071 60.7046C660.898 60.6968 610.725 60.6744 560.551 60.6419C524.504 60.6185 488.457 60.597 452.41 60.5899C451.297 60.5897 451.297 60.5897 450.163 60.5894C433.887 60.5862 417.61 60.5842 401.334 60.5832C394.785 60.5828 388.236 60.5822 381.687 60.5816C380.612 60.5815 380.612 60.5815 379.515 60.5815C356.431 60.5794 333.346 60.5652 310.261 60.5447C286.359 60.5235 262.457 60.5168 238.555 60.5266C224.774 60.5318 210.993 60.5259 197.212 60.504C188.008 60.4905 178.804 60.4916 169.6 60.5044C164.355 60.5113 159.11 60.5119 153.865 60.4949C149.089 60.4795 144.313 60.4826 139.537 60.5003C137.824 60.5034 136.111 60.4999 134.398 60.4888C113.152 60.3598 96.1414 66.6487 81.0018 82.0001Z" fill="#D62920"/>
<path d="M600.123 125.876C601.761 127.235 603.386 128.61 604.998 130.001C605.676 130.582 606.354 131.163 607.052 131.762C626.749 149.996 635.877 179.08 638.998 205.001C638.998 207.311 638.998 209.621 638.998 212.001C619.858 212.001 600.718 212.001 580.998 212.001C580.008 207.051 579.018 202.101 577.998 197.001C573.105 184.932 567.824 175.219 556.049 168.965C548.176 165.742 536.794 165.492 528.623 167.938C515.599 174.133 509.797 186.824 505.091 199.629C499.523 216.792 498.603 234.91 498.685 252.813C498.688 254.059 498.688 254.059 498.691 255.33C498.737 267.746 499.098 279.871 501.998 292.001C502.263 293.133 502.263 293.133 502.534 294.288C504.72 303.279 507.496 311.439 512.998 319.001C513.597 319.871 513.597 319.871 514.209 320.758C519.495 327.819 527.513 331.419 535.998 333.001C545.432 333.912 554.22 332.835 562.185 327.438C574.697 317.091 578.238 301.04 581.998 286.001C601.468 286.001 620.938 286.001 640.998 286.001C636.035 320.74 625.705 354.057 597.298 376.715C576.253 391.912 549.975 395.851 524.748 391.876C504.79 388.33 488.308 379.14 473.998 365.001C473.033 364.144 473.033 364.144 472.048 363.27C444.653 338.429 437.705 293.822 435.998 259.001C434.147 214.118 443.941 168.676 473.873 134.188C506.315 99.7781 563.136 97.1826 600.123 125.876Z" fill="#FEFDFD"/>
<path d="M122.078 5.48926C127.675 5.50542 133.272 5.50388 138.869 5.49609C148.689 5.48171 158.508 5.47924 168.328 5.49121C179.614 5.50624 190.9 5.51671 202.187 5.51172C202.879 5.51139 203.552 5.51106 204.225 5.51074C207.655 5.50914 211.085 5.50768 214.515 5.50586C239.329 5.49266 264.144 5.49735 288.958 5.51465C313.594 5.53191 338.229 5.54332 362.865 5.54297C364.411 5.54294 365.958 5.54298 367.504 5.54297C373.719 5.54291 379.935 5.54219 386.15 5.54199C403.52 5.54142 420.891 5.54224 438.261 5.54395C439.076 5.54403 439.867 5.54387 440.658 5.54395C465.86 5.54647 491.061 5.55398 516.263 5.56641C517.514 5.56703 517.515 5.56775 518.741 5.56836C532.021 5.57495 545.3 5.58187 558.579 5.58887C611.287 5.61667 663.996 5.63124 716.704 5.62988C718.371 5.62984 720.038 5.62992 721.705 5.62988C725.035 5.6298 728.366 5.62899 731.696 5.62891H759.064C803.263 5.62799 847.462 5.63579 891.661 5.64844C892.841 5.64878 892.841 5.64908 893.998 5.64941C900.978 5.65141 907.958 5.65322 914.938 5.65527C931.891 5.66029 948.844 5.66422 965.797 5.66504C966.585 5.66507 967.35 5.66598 968.115 5.66602C971.198 5.66616 974.281 5.66589 977.364 5.66602C1006.01 5.66719 1034.65 5.67307 1063.29 5.69336C1066.03 5.69531 1068.78 5.69734 1071.52 5.69922C1072.22 5.69969 1072.89 5.70071 1073.57 5.70117C1084.24 5.7085 1094.91 5.71021 1105.58 5.70801C1115.53 5.70595 1125.47 5.70843 1135.42 5.71875C1141.09 5.72556 1146.76 5.73373 1152.43 5.73047C1157.65 5.72546 1162.87 5.72295 1168.09 5.73242C1169.98 5.73678 1171.87 5.74047 1173.77 5.74316C1176.37 5.73681 1178.97 5.7305 1181.57 5.73828C1182.37 5.74143 1183.15 5.74402 1183.93 5.74707C1194.51 5.67923 1204.24 8.91703 1213.9 13.0225C1237.65 24.0841 1254.44 47.0526 1263.85 70.8457C1264.16 71.642 1264.45 72.4147 1264.75 73.1875C1271.55 90.3357 1272.59 108.117 1272.52 126.356C1272.51 129.614 1272.51 132.871 1272.51 136.128C1272.53 142.532 1272.53 148.935 1272.52 155.339C1272.5 162.861 1272.5 170.383 1272.5 177.905C1272.51 191.339 1272.5 204.774 1272.47 218.208C1272.45 231.243 1272.44 244.278 1272.45 257.312C1272.46 271.609 1272.46 285.905 1272.45 300.201C1272.45 301.73 1272.44 303.259 1272.44 304.788C1272.44 305.939 1272.44 305.94 1272.44 307.068C1272.44 312.327 1272.43 317.586 1272.44 322.845C1272.44 329.305 1272.44 335.766 1272.43 342.227C1272.42 344.896 1272.41 347.566 1272.41 350.235C1272.42 357.205 1272.43 364.174 1272.28 371.143C1271.29 398.727 1259.76 429.836 1239.27 448.953L1237 451C1217.67 469.51 1195.74 476.658 1169.37 476.519C1167.56 476.508 1165.76 476.506 1163.96 476.51C1158.93 476.53 1153.9 476.535 1148.86 476.522C1143.34 476.508 1137.82 476.511 1132.29 476.521C1122.6 476.538 1112.9 476.544 1103.21 476.535C1092.07 476.524 1080.93 476.516 1069.8 476.524C1069.11 476.525 1068.45 476.525 1067.79 476.525C1065.08 476.527 1062.37 476.53 1059.67 476.532C1034.48 476.553 1009.3 476.557 984.119 476.546C983.351 476.546 982.604 476.545 981.858 476.545C980.715 476.544 980.715 476.544 979.594 476.544C956.777 476.534 933.961 476.53 911.145 476.535C909.617 476.535 908.089 476.536 906.562 476.536C900.421 476.537 894.28 476.539 888.139 476.54C870.976 476.544 853.813 476.546 836.65 476.547C835.845 476.547 835.063 476.547 834.281 476.547C809.385 476.549 784.488 476.546 759.592 476.537C758.76 476.537 757.952 476.536 757.145 476.536C744.029 476.532 730.913 476.526 717.797 476.521C665.756 476.502 613.714 476.501 561.673 476.521C548.551 476.525 535.429 476.531 522.307 476.535C521.474 476.535 520.666 476.536 519.857 476.536C494.936 476.545 470.014 476.549 445.092 476.548C444.286 476.548 443.503 476.547 442.721 476.547C425.539 476.546 408.357 476.544 391.176 476.54C385.029 476.539 378.882 476.537 372.735 476.536C371.206 476.536 369.677 476.535 368.147 476.535C345.324 476.53 322.5 476.533 299.677 476.543C298.905 476.543 298.157 476.544 297.408 476.544C296.638 476.544 295.891 476.545 295.144 476.545C269.89 476.556 244.636 476.555 219.383 476.534C216.668 476.532 213.952 476.529 211.237 476.527C210.551 476.527 209.883 476.526 209.217 476.525C198.688 476.517 188.16 476.52 177.631 476.531C167.812 476.541 157.992 476.542 148.173 476.527C142.565 476.517 136.957 476.503 131.349 476.514C126.204 476.527 121.06 476.537 115.915 476.521C114.032 476.514 112.149 476.508 110.267 476.504C94.4506 476.594 79.8332 475.181 65.1885 468.812C39.1632 456.014 21.6464 433.055 11.9629 406.109C11.5088 404.792 11.5086 404.792 11.0635 403.5C5.08399 386.504 4.56428 368.928 4.62988 351.106C4.64242 347.902 4.64449 344.698 4.64062 341.493C4.63243 335.197 4.63781 328.9 4.65332 322.604C4.67158 315.215 4.67682 307.825 4.67773 300.437C4.6789 287.255 4.69203 274.073 4.71582 260.892C4.73913 248.082 4.75582 235.272 4.75977 222.462C4.75999 221.646 4.76052 220.854 4.76074 220.062C4.76119 218.465 4.76128 216.868 4.76172 215.271C4.76194 214.46 4.76248 213.672 4.7627 212.884C4.76292 212.074 4.76345 211.287 4.76367 210.501C4.76706 198.202 4.77687 185.903 4.78906 173.604C4.79356 169.171 4.79801 164.737 4.80078 160.303C4.80519 153.215 4.81165 146.127 4.8252 139.04C4.83058 136.429 4.83521 133.819 4.83984 131.208C4.84134 127.574 4.84291 123.939 4.85156 120.305C4.85462 119.184 4.85738 118.096 4.86035 117.009C4.85001 105.001 6.20673 93.5317 9.59863 81.9619C18.3507 54.0223 34.4628 28.6864 60.9365 14.6484L62.9385 13.625C75.3799 7.15491 87.5194 5.41025 101.308 5.48633C103.136 5.49714 104.965 5.5005 106.793 5.49707C111.888 5.47857 116.983 5.47467 122.078 5.48926ZM112.788 20.5C110.985 20.5031 109.181 20.5004 107.378 20.4893C82.1512 20.3436 61.0656 28.3592 44.5859 48.0029C36.5812 58.01 30.843 68.8341 26.6885 80.9375C26.3427 81.9366 26.3429 81.9369 25.9902 82.9561C20.7574 99.2598 20.5677 115.187 20.6123 132.148C20.6082 134.764 20.6032 137.379 20.5967 139.994C20.5834 146.325 20.586 152.656 20.5947 158.986C20.6015 164.138 20.6029 169.29 20.5996 174.441C20.5991 175.178 20.5981 175.915 20.5977 176.674C20.5967 178.171 20.5957 179.668 20.5947 181.165C20.5862 195.164 20.5961 209.164 20.6123 223.163C20.6257 235.14 20.6232 247.118 20.6094 259.095C20.5933 273.047 20.5875 286.998 20.5967 300.95C20.5976 302.442 20.5987 303.934 20.5996 305.426C20.6001 306.159 20.6001 306.893 20.6006 307.648C20.6032 312.785 20.5989 317.923 20.5918 323.06C20.5824 329.991 20.5892 336.923 20.6064 343.854C20.6104 346.387 20.6092 348.92 20.6025 351.452C20.5627 368.149 21.1081 384.192 26.6885 400.125C26.9419 400.862 27.1949 401.6 27.4561 402.359C31.6963 414.203 37.6991 424.519 46.001 434L47.8252 436.293C58.3685 449.135 73.7156 457.395 90.001 460C96.2172 460.519 102.464 460.404 108.696 460.378C110.578 460.381 112.461 460.385 114.343 460.391C119.508 460.402 124.673 460.396 129.838 460.386C135.46 460.378 141.082 460.388 146.704 460.396C156.555 460.406 166.406 460.406 176.257 460.398C186.823 460.39 197.39 460.388 207.956 460.395C208.958 460.395 208.958 460.395 209.98 460.396C212.702 460.397 215.424 460.399 218.146 460.4C243.476 460.416 268.807 460.418 294.138 460.409C294.888 460.409 295.638 460.408 296.411 460.408C297.538 460.408 297.539 460.408 298.688 460.407C321.583 460.4 344.478 460.398 367.372 460.401C368.905 460.402 370.438 460.402 371.972 460.402C378.134 460.403 384.296 460.404 390.458 460.405C407.683 460.408 424.909 460.409 442.134 460.41C442.918 460.41 443.703 460.41 444.511 460.41C469.503 460.411 494.496 460.409 519.488 460.402C520.299 460.402 521.109 460.402 521.944 460.401C535.107 460.398 548.27 460.394 561.433 460.391C613.637 460.376 665.841 460.377 718.045 460.392C731.201 460.395 744.358 460.399 757.514 460.402C758.729 460.403 758.729 460.402 759.969 460.402C784.935 460.409 809.902 460.411 834.868 460.41C835.652 460.41 836.436 460.41 837.243 460.41C854.449 460.409 871.655 460.407 888.861 460.404C895.018 460.403 901.175 460.403 907.331 460.402C908.863 460.402 910.394 460.402 911.926 460.401C934.814 460.398 957.703 460.401 980.591 460.408C981.341 460.408 982.091 460.409 982.864 460.409C983.987 460.41 983.987 460.41 985.133 460.41C1010.39 460.418 1035.65 460.415 1060.91 460.399C1063.62 460.398 1066.33 460.396 1069.05 460.395C1069.71 460.394 1070.38 460.394 1071.06 460.394C1082.24 460.387 1093.42 460.393 1104.6 460.401C1114.32 460.408 1124.04 460.404 1133.77 460.391C1139.31 460.383 1144.85 460.381 1150.4 460.392C1155.44 460.401 1160.49 460.397 1165.53 460.382C1167.34 460.379 1169.15 460.381 1170.96 460.389C1191.6 460.47 1208.3 456.191 1224 442L1226.08 440.172C1239.1 427.993 1247.47 411.296 1252.38 394.375C1252.73 393.142 1252.73 393.142 1253.1 391.885C1257.34 376.277 1257.29 360.876 1257.28 344.829C1257.28 342.295 1257.29 339.76 1257.29 337.226C1257.3 331.084 1257.31 324.942 1257.3 318.801C1257.3 313.802 1257.3 308.804 1257.31 303.806C1257.31 303.091 1257.31 302.377 1257.31 301.641C1257.31 300.189 1257.31 298.736 1257.31 297.284C1257.32 283.7 1257.32 270.116 1257.32 256.531C1257.31 244.141 1257.32 231.751 1257.34 219.361C1257.36 206.599 1257.37 193.836 1257.36 181.073C1257.36 173.924 1257.36 166.775 1257.38 159.626C1257.39 152.899 1257.39 146.172 1257.38 139.444C1257.37 136.988 1257.38 134.532 1257.39 132.075C1257.44 114.674 1256.65 97.964 1250.88 81.375C1250.58 80.5032 1250.28 79.6316 1249.97 78.7334C1245.28 65.6133 1238.38 54.3161 1229 44L1227.23 42.0195C1214.86 28.8917 1198.06 21.461 1180.14 20.874C1178.76 20.8683 1177.39 20.8671 1176.02 20.8711C1174.87 20.8684 1174.87 20.8689 1173.69 20.8662C1171.13 20.8615 1168.56 20.8639 1165.99 20.8662C1164.12 20.8643 1162.25 20.8612 1160.39 20.8584C1155.24 20.852 1150.08 20.8517 1144.93 20.8525C1139.34 20.8524 1133.74 20.847 1128.14 20.8418C1117.03 20.8325 1105.92 20.8284 1094.81 20.8262C1085.57 20.8241 1076.33 20.8195 1067.09 20.8135C1066.43 20.813 1065.76 20.8129 1065.08 20.8125C1062.37 20.8107 1059.66 20.8094 1056.95 20.8076C1024.11 20.786 991.269 20.7746 958.43 20.7656C947.781 20.7627 937.131 20.7595 926.482 20.7559C925.731 20.7556 924.979 20.7551 924.205 20.7549C921.165 20.7538 918.126 20.753 915.086 20.752C863.088 20.734 811.09 20.7184 759.092 20.7109C755.008 20.7104 750.924 20.7096 746.841 20.709C746.031 20.7089 745.22 20.7091 744.386 20.709C736.179 20.7078 727.972 20.7063 719.765 20.7051C718.119 20.7048 716.474 20.7043 714.828 20.7041C661.98 20.6963 609.131 20.6741 556.282 20.6416C518.306 20.6183 480.33 20.597 442.354 20.5898C441.182 20.5896 441.182 20.5901 439.987 20.5898C422.839 20.5867 405.69 20.584 388.542 20.583C381.642 20.5826 374.743 20.5826 367.843 20.582C366.71 20.5819 366.709 20.5811 365.554 20.5811C341.238 20.579 316.922 20.5654 292.606 20.5449C268.112 20.5243 243.617 20.5158 219.122 20.5254C215.735 20.5267 212.348 20.5282 208.961 20.5293C208.297 20.5295 207.633 20.53 206.949 20.5303C195.812 20.5336 184.674 20.5207 173.536 20.5039C163.842 20.4904 154.147 20.492 144.452 20.5049C138.928 20.5118 133.404 20.5122 127.88 20.4951C122.849 20.4797 117.819 20.4823 112.788 20.5Z" fill="#D7271E"/>
<path d="M505 254C570.67 254 636.34 254 704 254C704 262.58 704 271.16 704 280C685.85 280 667.7 280 649 280C649 279.01 649 278.02 649 277C624.58 277 600.16 277 575 277C575 277.99 575 278.98 575 280C566.151 280.023 557.302 280.041 548.454 280.052C544.345 280.057 540.237 280.064 536.128 280.075C532.167 280.086 528.205 280.092 524.243 280.095C522.729 280.097 521.214 280.1 519.699 280.106C517.585 280.113 515.47 280.114 513.356 280.114C511.547 280.117 511.547 280.117 509.702 280.12C507 280 507 280 506 279C505.67 270.75 505.34 262.5 505 254Z" fill="#FDFAF9"/>
<path d="M508 214C529.78 214 551.56 214 574 214C574 216.31 574 218.62 574 221C598.09 221 622.18 221 647 221C647 218.69 647 216.38 647 214C665.81 214 684.62 214 704 214C704 222.91 704 231.82 704 241C638.66 241 573.32 241 506 241C506 226 506 226 508 214Z" fill="#FDF8F7"/>
<path d="M773 175C825.47 175 877.94 175 932 175C932 183.58 932 192.16 932 201C879.53 201 827.06 201 773 201C773 192.42 773 183.84 773 175Z" fill="#FDF9F9"/>
<path d="M501.999 208C502.329 208 502.659 208 502.999 208C503.329 209.98 503.659 211.96 503.999 214C505.319 214 506.639 214 507.999 214C507.939 214.692 507.878 215.384 507.816 216.098C507.106 224.393 506.533 232.692 505.999 241C504.349 240.67 502.699 240.34 500.999 240C500.158 243.646 499.882 247 499.902 250.738C499.905 251.805 499.908 252.872 499.912 253.971C499.92 255.073 499.928 256.176 499.937 257.312C499.942 258.435 499.946 259.557 499.951 260.713C499.962 263.475 499.979 266.238 499.999 269C500.329 269 500.659 269 500.999 269C501.329 267.35 501.659 265.7 501.999 264C502.659 264 503.319 264 503.999 264C503.999 260.7 503.999 257.4 503.999 254C504.329 254 504.659 254 504.999 254C505.659 262.25 506.319 270.5 506.999 279C540.659 279.495 540.659 279.495 574.999 280C574.999 279.01 574.999 278.02 574.999 277C578.299 277 581.599 277 584.999 277C584.999 277.33 584.999 277.66 584.999 278C582.029 278 579.059 278 575.999 278C575.999 279.32 575.999 280.64 575.999 282C576.66 282.33 577.319 282.66 577.999 283C577.669 283.66 577.339 284.32 576.999 285C577.989 284.67 578.979 284.34 579.999 284C580.329 284.33 580.66 284.66 580.999 285C582.902 285.094 584.808 285.117 586.713 285.114C588.544 285.113 588.544 285.113 590.413 285.113C591.756 285.108 593.098 285.103 594.441 285.098C595.807 285.096 597.173 285.094 598.54 285.093C602.142 285.09 605.743 285.08 609.345 285.069C613.019 285.058 616.692 285.054 620.365 285.049C627.576 285.038 634.788 285.021 641.999 285C641.669 285.99 641.339 286.98 640.999 288C640.999 287.34 640.999 286.68 640.999 286C621.529 286 602.059 286 581.999 286C581.009 291.28 580.019 296.56 578.999 302C574.612 313.866 569.375 324.559 557.999 331C547.81 335.552 537.157 335.19 526.82 331.316C515.303 325.941 509.047 316.51 504.687 304.938C498.671 288.167 497.614 270.986 497.687 253.312C497.687 252.485 497.688 251.657 497.688 250.805C497.712 237.992 498.466 225.59 500.999 213C501.197 212.001 501.394 211.002 501.597 209.973C501.73 209.322 501.863 208.671 501.999 208Z" fill="#D6271E"/>
<path d="M773 293C825.47 293 877.94 293 932 293C932 301.58 932 310.16 932 319C912.2 319 892.4 319 872 319C872 317.68 872 316.36 872 315C839.33 315 806.66 315 773 315C773 307.74 773 300.48 773 293Z" fill="#FEFBFB"/>
<path d="M341 214C370.7 214 400.4 214 431 214C430.67 222.91 430.34 231.82 430 241C397 241 364 241 330 241C329.67 240.01 329.34 239.02 329 238C332.96 230.08 336.92 222.16 341 214Z" fill="#FDF7F6"/>
<path d="M336 254C366.69 254 397.38 254 429 254C429.99 266.87 429.99 266.87 431 280C403.61 280 376.22 280 348 280C343.731 271.463 339.545 262.863 336 254Z" fill="#FEFAFA"/>
<path d="M854 254C879.74 254 905.48 254 932 254C932 262.58 932 271.16 932 280C879.53 280 827.06 280 773 280C773 279.34 773 278.68 773 278C799.73 278 826.46 278 854 278C854 270.08 854 262.16 854 254Z" fill="#FDF7F7"/>
<path d="M380 135C407.06 135 434.12 135 462 135C459.727 139.546 457.108 143.832 454.453 148.16C454.069 148.793 453.685 149.426 453.289 150.078C452.946 150.639 452.602 151.2 452.249 151.778C450.372 155.117 448.713 158.574 447 162C420.93 162 394.86 162 368 162C371.375 151.875 371.375 151.875 373.008 148.691C373.355 148.008 373.701 147.324 374.059 146.619C374.411 145.94 374.762 145.262 375.125 144.562C375.485 143.857 375.844 143.151 376.215 142.424C377.138 140.613 378.069 138.806 379 137C379.33 136.34 379.66 135.68 380 135Z" fill="#FDF7F6"/>
<path d="M360 175C386.73 175 413.46 175 441 175C440.01 178.63 439.02 182.26 438 186C436.68 190.95 435.36 195.9 434 201C405.62 201 377.24 201 348 201C350.97 194.73 353.94 188.46 357 182C357.99 179.69 358.98 177.38 360 175Z" fill="#FDF9F9"/>
<path d="M854 214C879.74 214 905.48 214 932 214C932 222.91 932 231.82 932 241C906.26 241 880.52 241 854 241C854 232.09 854 223.18 854 214Z" fill="#FDF7F6"/>
<path d="M621 135C648.39 135 675.78 135 704 135C704 143.91 704 152.82 704 162C681.23 162 658.46 162 635 162C632.36 156.72 629.72 151.44 627 146C624.578 142.258 624.578 142.258 622.031 138.602C621 137 621 137 621 135Z" fill="#FDF7F6"/>
<path d="M354 293C380.07 293 406.14 293 433 293C438 314 438 314 439 319C414.91 319 390.82 319 366 319C361.731 310.463 357.545 301.863 354 293Z" fill="#FDFAFA"/>
<path d="M637 332C659.11 332 681.22 332 704 332C704 340.91 704 349.82 704 359C677.93 359 651.86 359 625 359C626.306 355.735 627.614 352.617 629.129 349.461C629.722 348.22 629.722 348.22 630.326 346.953C631.154 345.227 631.982 343.5 632.811 341.773C633.204 340.948 633.598 340.123 634.004 339.273C634.363 338.525 634.722 337.777 635.092 337.005C636.101 334.868 636.101 334.868 637 332Z" fill="#FCF7F6"/>
<path d="M372 332C395.76 332 419.52 332 444 332C446.64 337.28 449.28 342.56 452 348C453.98 351.63 455.96 355.26 458 359C433.58 359 409.16 359 384 359C372 333 372 333 372 332Z" fill="#FDF7F6"/>
<path d="M868 135C889.12 135 910.24 135 932 135C932 143.91 932 152.82 932 162C910.88 162 889.76 162 868 162C868 153.09 868 144.18 868 135Z" fill="#FDF6F5"/>
<path d="M872 332C891.8 332 911.6 332 932 332C932 340.91 932 349.82 932 359C912.2 359 892.4 359 872 359C872 350.09 872 341.18 872 332Z" fill="#FDF6F6"/>
<path d="M640 175C661.12 175 682.24 175 704 175C704 183.58 704 192.16 704 201C684.53 201 665.06 201 645 201C641 181 641 181 640 175Z" fill="#FDF9F8"/>
<path d="M647 293C665.81 293 684.62 293 704 293C704 301.58 704 310.16 704 319C683.54 319 663.08 319 642 319C643.65 310.42 645.3 301.84 647 293Z" fill="#FDFAFA"/>
<path d="M509 293C530.12 293 551.24 293 573 293C570.724 303.243 570.724 303.243 568.75 307.125C568.374 307.891 567.997 308.656 567.609 309.445C567.078 310.288 566.547 311.131 566 312C565.711 312.606 565.423 313.212 565.125 313.836C563.625 316.304 562.489 317.487 560 319C554.784 319.882 549.719 319.923 544.441 319.803C541.94 319.75 539.445 319.762 536.943 319.781C535.346 319.769 533.749 319.754 532.152 319.734C531.41 319.738 530.667 319.742 529.901 319.746C525.937 319.62 524.195 319.163 521.115 316.587C520.417 315.733 519.719 314.88 519 314C518.34 313.299 517.68 312.597 517 311.875C512.981 306.097 510.376 299.882 509 293Z" fill="#FDFAFA"/>
<path d="M78 457C78.9761 457.212 78.9761 457.212 79.972 457.429C89.5372 459.282 98.8776 459.279 108.575 459.252C110.457 459.254 112.338 459.257 114.219 459.26C119.386 459.268 124.554 459.264 129.721 459.257C135.344 459.252 140.966 459.258 146.589 459.263C156.442 459.271 166.296 459.27 176.15 459.265C186.72 459.26 197.29 459.259 207.86 459.263C208.528 459.263 209.197 459.263 209.885 459.264C212.607 459.265 215.329 459.266 218.05 459.267C243.388 459.277 268.725 459.278 294.062 459.273C295.188 459.272 295.188 459.272 296.336 459.272C297.088 459.272 297.839 459.272 298.614 459.272C321.514 459.267 344.415 459.265 367.315 459.268C368.849 459.268 370.382 459.268 371.916 459.268C378.079 459.269 384.241 459.269 390.404 459.27C407.632 459.272 424.86 459.273 442.088 459.274C442.872 459.274 443.657 459.274 444.465 459.274C469.462 459.274 494.46 459.272 519.457 459.268C520.673 459.268 520.673 459.268 521.914 459.267C535.08 459.265 548.246 459.263 561.412 459.26C613.63 459.251 665.847 459.251 718.065 459.261C731.224 459.263 744.384 459.266 757.543 459.268C758.353 459.268 759.164 459.268 759.998 459.268C784.97 459.273 809.941 459.274 834.912 459.274C835.696 459.274 836.48 459.274 837.288 459.274C854.497 459.273 871.705 459.272 888.914 459.27C895.071 459.269 901.229 459.268 907.386 459.268C908.918 459.268 910.449 459.268 911.981 459.267C934.875 459.265 957.77 459.267 980.664 459.272C981.414 459.272 982.165 459.272 982.938 459.273C984.062 459.273 984.062 459.273 985.208 459.273C1010.47 459.279 1035.74 459.277 1061 459.266C1063.71 459.265 1066.43 459.264 1069.14 459.263C1070.14 459.262 1070.14 459.262 1071.16 459.262C1082.34 459.258 1093.52 459.262 1104.7 459.267C1114.43 459.272 1124.16 459.269 1133.88 459.26C1139.43 459.256 1144.97 459.254 1150.52 459.261C1155.56 459.268 1160.61 459.265 1165.65 459.255C1167.46 459.253 1169.28 459.254 1171.09 459.259C1180.6 459.284 1189.65 459.032 1199 457C1198.67 457.66 1198.34 458.32 1198 459C1196.52 459.495 1196.52 459.495 1195 460C1196.32 460.66 1197.64 461.32 1199 462C1191.45 463.132 1191.45 463.132 1189.34 462.515C1186.05 461.79 1182.79 461.866 1179.44 461.88C1178.28 461.879 1178.28 461.879 1177.1 461.878C1174.5 461.877 1171.9 461.882 1169.3 461.888C1167.41 461.889 1165.53 461.889 1163.65 461.888C1158.43 461.889 1153.22 461.895 1148.01 461.903C1142.35 461.91 1136.7 461.911 1131.04 461.913C1121.11 461.917 1111.19 461.924 1101.26 461.935C1090.6 461.945 1079.95 461.954 1069.3 461.96C1068.29 461.961 1068.29 461.961 1067.26 461.961C1063.83 461.963 1060.4 461.965 1056.98 461.967C1049.95 461.97 1042.92 461.975 1035.89 461.979C1035.18 461.979 1034.47 461.979 1033.74 461.98C1022.72 461.986 1011.7 461.994 1000.68 462.003C999.559 462.003 999.559 462.003 998.419 462.004C995.394 462.007 992.368 462.009 989.343 462.011C952.378 462.04 915.413 462.059 878.448 462.073C869.802 462.077 861.155 462.08 852.509 462.084C850.925 462.084 849.341 462.085 847.757 462.086C844.58 462.087 841.402 462.088 838.225 462.09C835.036 462.091 831.846 462.092 828.657 462.093C791.861 462.108 755.066 462.125 718.27 462.143C715.775 462.144 713.28 462.146 710.785 462.147C672.352 462.166 633.92 462.187 595.488 462.216C594.661 462.217 593.834 462.218 592.982 462.218C579.652 462.228 566.322 462.239 552.991 462.249C514.604 462.278 476.216 462.305 437.829 462.319C437.04 462.319 436.251 462.319 435.438 462.32C418.895 462.326 402.352 462.331 385.809 462.335C378.063 462.336 370.317 462.338 362.57 462.341C361.808 462.341 361.045 462.341 360.259 462.341C335.671 462.348 311.083 462.368 286.495 462.395C261.737 462.422 236.979 462.437 212.221 462.435C208.803 462.434 205.385 462.434 201.966 462.434C201.296 462.434 200.626 462.434 199.936 462.434C188.663 462.434 177.39 462.45 166.117 462.47C156.324 462.487 146.531 462.489 136.738 462.479C131.149 462.474 125.561 462.475 119.973 462.494C114.895 462.511 109.817 462.509 104.74 462.493C102.908 462.491 101.077 462.495 99.2455 462.507C96.7676 462.521 94.2909 462.512 91.8131 462.496C91.1014 462.506 90.3898 462.516 89.6566 462.526C84.4923 462.454 81.9 461.154 78 458C78 457.67 78 457.34 78 457Z" fill="#C33128"/>
<path d="M557.199 179.218C562.512 182.862 565.831 187.449 569 193C569.384 193.667 569.768 194.335 570.164 195.023C571 197 571 197 571 201C551.53 201 532.06 201 512 201C516.71 189.226 521.363 181.043 532.938 175.625C541.449 173.888 549.553 174.981 557.199 179.218Z" fill="#FCF8F7"/>
<path d="M563.188 172.688C573.729 181.21 579.45 193.655 581 207C581.026 208.667 581.032 210.334 581 212C579.515 212.495 579.515 212.495 578 213C576.887 209.663 577.193 209.228 578 206C578.039 203.667 578.045 201.333 578 199C577.092 199.516 576.185 200.031 575.25 200.563C572 202 572 202 569.625 201.688C569.089 201.461 568.553 201.234 568 201C568.99 201 569.98 201 571 201C568.186 192.629 564.342 184.376 556.562 179.563C549.283 176.37 541.523 174.367 533.676 176.688C523.42 180.866 518.764 187.194 514 197C513.438 195.063 513.438 195.063 513 193C513.33 192.67 513.66 192.34 514 192C514.041 190.334 514.043 188.666 514 187C512.301 189.069 511.102 190.552 510.5 193.188C510.253 194.085 510.253 194.085 510 195C509.01 195.33 508.02 195.66 507 196C506.67 196.99 506.34 197.98 506 199C505.67 198.34 505.34 197.68 505 197C509.097 185.077 516.157 174.742 526.793 167.836C538.43 162.339 553.11 165.797 563.188 172.688Z" fill="#D52A21"/>
<path d="M284.816 331.902C286.398 331.909 287.981 331.921 289.562 331.938C290.369 331.942 291.175 331.947 292.006 331.951C294.004 331.963 296.002 331.981 298 332C299.672 336.123 301.337 340.249 303 344.375C303.477 345.551 303.954 346.726 304.445 347.938C304.896 349.059 305.348 350.18 305.812 351.336C306.231 352.373 306.65 353.41 307.082 354.478C308 357 308 357 308 359C295.79 359 283.58 359 271 359C271.707 354.76 272.268 351.893 273.812 348.074C274.166 347.196 274.519 346.317 274.883 345.412C275.251 344.513 275.62 343.614 276 342.688C276.369 341.769 276.737 340.851 277.117 339.904C280.311 332.018 280.311 332.018 284.816 331.902Z" fill="#FBF5F4"/>
<path d="M279 135C287.91 135 296.82 135 306 135C302.62 145.139 302.62 145.139 301.211 148.562C300.909 149.296 300.608 150.029 300.297 150.785C299.993 151.516 299.688 152.247 299.375 153C299.063 153.762 298.751 154.524 298.43 155.309C296.13 160.87 296.13 160.87 295 162C293 162.041 291 162.043 289 162C287.328 157.877 285.663 153.751 284 149.625C283.285 147.862 283.285 147.862 282.555 146.062C282.104 144.941 281.652 143.82 281.188 142.664C280.769 141.627 280.35 140.59 279.918 139.522C279 137 279 137 279 135Z" fill="#FCF3F2"/>
<path d="M1006 241C1051.21 241 1096.42 241 1143 241C1143 245.29 1143 249.58 1143 254C1096.14 254 1049.28 254 1001 254C1001 253.67 1001 253.34 1001 253C1047.53 253 1094.06 253 1142 253C1142 250.36 1142 247.72 1142 245C1140.35 245 1138.7 245 1137 245C1136.67 244.34 1136.34 243.68 1136 243C1093.1 243 1050.2 243 1006 243C1006 242.34 1006 241.68 1006 241Z" fill="#CE2820"/>
<path d="M440 294C440.33 294 440.66 294 441 294C441.12 294.552 441.24 295.105 441.364 295.674C445.411 314.054 450.976 329.871 460.088 346.334C461.109 348.199 462.073 350.087 463 352C462.196 352.248 461.391 352.495 460.562 352.75C459.717 353.162 458.871 353.575 458 354C457.305 356.03 457.305 356.03 457 358C455.385 355.36 453.783 352.714 452.188 350.062C451.736 349.327 451.284 348.592 450.818 347.834C447.763 342.727 445.642 337.719 444 332C444.66 332 445.32 332 446 332C446 331.01 446 330.02 446 329C446.99 329 447.98 329 449 329C449 328.34 449 327.68 449 327C448.34 327 447.68 327 447 327C447 325.35 447 323.7 447 322C446.01 322 445.02 322 444 322C444 322.66 444 323.32 444 324C443.34 324.33 442.68 324.66 442 325C441.67 323.35 441.34 321.7 441 320C438.36 320 435.72 320 433 320C433 319.67 433 319.34 433 319C434.98 319 436.96 319 439 319C438.723 318.238 438.446 317.476 438.16 316.691C435.945 310.378 434.445 304.677 434 298C434.66 298 435.32 298 436 298C436.33 300.64 436.66 303.28 437 306C437.66 306 438.32 306 439 306C438.979 304.948 438.959 303.896 438.938 302.812C438.989 299.673 439.265 297.031 440 294Z" fill="#D42B22"/>
<path d="M533.162 97.8142C535.295 97.812 537.428 97.7939 539.561 97.7749C540.932 97.7719 542.304 97.77 543.676 97.769C544.912 97.7649 546.149 97.7608 547.423 97.7566C552.212 98.0818 556.606 98.4703 559.938 102.124C560.288 102.743 560.639 103.362 561 103.999C561.66 103.669 562.32 103.339 563 102.999C564.54 102.93 566.083 102.915 567.625 102.937C568.851 102.951 568.851 102.951 570.102 102.964C570.728 102.976 571.355 102.988 572 102.999C572.66 104.319 573.32 105.639 574 106.999C573.078 106.982 573.078 106.982 572.137 106.964C570.924 106.951 570.924 106.951 569.688 106.937C568.887 106.925 568.086 106.914 567.262 106.902C564.831 106.903 564.831 106.903 562 107.999C559.665 107.679 557.332 107.343 555 106.999C552.244 106.943 549.519 106.928 546.766 106.972C545.207 106.985 543.648 106.997 542.09 107.009C539.658 107.034 537.227 107.062 534.795 107.095C532.431 107.126 530.067 107.143 527.703 107.16C526.975 107.173 526.247 107.187 525.497 107.2C521.761 107.219 520.195 107.13 517 104.999C517 104.339 517 103.679 517 102.999C516.685 101.662 516.354 100.327 516 98.9995C521.518 97.2761 527.439 97.8135 533.162 97.8142Z" fill="#D8261C"/>
<path d="M501.999 208C502.329 208 502.659 208 502.999 208C503.329 209.98 503.659 211.96 503.999 214C505.319 214 506.639 214 507.999 214C507.938 214.692 507.878 215.384 507.815 216.098C507.105 224.393 506.532 232.692 505.999 241C504.349 240.67 502.699 240.34 500.999 240C500.158 243.646 499.881 247 499.901 250.738C499.904 251.805 499.907 252.872 499.911 253.971C499.919 255.073 499.928 256.176 499.936 257.312C499.941 258.435 499.945 259.557 499.95 260.713C499.962 263.475 499.978 266.238 499.999 269C500.329 269 500.659 269 500.999 269C501.329 267.35 501.659 265.7 501.999 264C502.659 264 503.319 264 503.999 264C503.999 260.7 503.999 257.4 503.999 254C504.329 254 504.659 254 504.999 254C506.1 262.356 506.1 270.588 505.999 279C504.019 279.495 504.019 279.495 501.999 280C501.669 282.64 501.339 285.28 500.999 288C500.669 288 500.339 288 499.999 288C498.258 276.396 497.638 265.039 497.686 253.312C497.687 252.485 497.687 251.657 497.688 250.805C497.711 237.992 498.465 225.59 500.999 213C501.196 212.001 501.393 211.002 501.596 209.973C501.729 209.322 501.862 208.671 501.999 208Z" fill="#D22B22"/>
<path d="M256 241C255.67 241.66 255.34 242.32 255 243C218.37 243 181.74 243 144 243C143.67 246.3 143.34 249.6 143 253C176.66 253 210.32 253 245 253C245 253.33 245 253.66 245 254C211.01 254 177.02 254 142 254C142 249.71 142 245.42 142 241C156.125 240.846 170.251 240.698 184.376 240.557C190.935 240.491 197.494 240.424 204.053 240.352C210.381 240.282 216.709 240.218 223.038 240.157C225.454 240.133 227.869 240.107 230.285 240.079C233.665 240.041 237.046 240.009 240.427 239.978C241.928 239.959 241.928 239.959 243.461 239.939C244.385 239.932 245.309 239.925 246.261 239.918C247.06 239.909 247.859 239.901 248.682 239.893C251.203 240.009 253.541 240.448 256 241Z" fill="#CF2B23"/>
<path d="M435 240C435.33 240 435.66 240 436 240C436.632 250.679 437.173 261.298 437 272C435.68 271.67 434.36 271.34 433 271C432.01 272.32 431.02 273.64 430 275C429.827 273.376 429.662 271.75 429.5 270.125C429.407 269.22 429.314 268.315 429.219 267.383C428.931 262.931 429 258.462 429 254C398.64 254 368.28 254 337 254C337 253.67 337 253.34 337 253C368.35 252.67 399.7 252.34 432 252C432.33 251.01 432.66 250.02 433 249C433.66 249 434.32 249 435 249C435 246.03 435 243.06 435 240Z" fill="#CE2C25"/>
<path d="M621 138C625.088 139.363 626.04 142.036 628 145.625C628.343 146.23 628.686 146.834 629.039 147.457C635 158.128 635 158.128 635 163C632.69 163.66 630.38 164.32 628 165C627.397 163.854 626.793 162.708 626.172 161.527C625.365 159.997 624.557 158.467 623.75 156.938C623.354 156.185 622.959 155.433 622.551 154.658C620.119 150.053 617.61 145.507 615 141C616.98 140.67 618.96 140.34 621 140C621 139.34 621 138.68 621 138Z" fill="#D52920"/>
<path d="M640 288C640.33 288.66 640.66 289.32 641 290C641.66 290 642.32 290 643 290C643.33 289.34 643.66 288.68 644 288C644.66 288.33 645.32 288.66 646 289C646 289.66 646 290.32 646 291C644.68 291 643.36 291 642 291C642.33 292.32 642.66 293.64 643 295C644.32 295.33 645.64 295.66 647 296C645.68 302.93 644.36 309.86 643 317C642.67 315.68 642.34 314.36 642 313C638.875 314.635 638.875 314.635 638.312 317.125C638.209 317.744 638.106 318.362 638 319C638 318.34 638 317.68 638 317C637.34 317 636.68 317 636 317C636 317.99 636 318.98 636 320C635.34 320 634.68 320 634 320C634.166 319.185 634.166 319.185 634.335 318.354C636.388 308.261 638.427 298.182 640 288Z" fill="#D03028"/>
<path d="M634 335C634.66 335 635.32 335 636 335C635.416 338.614 634.445 341.425 632.715 344.645C632.267 345.486 631.819 346.327 631.357 347.193C630.889 348.058 630.42 348.922 629.938 349.812C629.465 350.696 628.993 351.58 628.506 352.49C627.343 354.663 626.174 356.833 625 359C624.01 358.34 623.02 357.68 622 357C622 356.01 622 355.02 622 354C621.34 354 620.68 354 620 354C619.67 354.66 619.34 355.32 619 356C618.34 355.34 617.68 354.68 617 354C618.268 351.915 619.54 349.832 620.812 347.75C621.169 347.163 621.525 346.577 621.893 345.973C623.796 342.865 625.75 339.868 628 337C628.99 338.485 628.99 338.485 630 340C632.511 338.745 632.871 337.499 634 335Z" fill="#D22D25"/>
<path d="M498.002 234C498.332 234 498.662 234 499.002 234C499.332 245.55 499.662 257.1 500.002 269C500.332 269 500.662 269 501.002 269C501.332 267.35 501.662 265.7 502.002 264C502.662 264 503.322 264 504.002 264C504.002 260.7 504.002 257.4 504.002 254C504.332 254 504.662 254 505.002 254C506.103 262.356 506.103 270.588 506.002 279C504.022 279.495 504.022 279.495 502.002 280C501.672 282.64 501.342 285.28 501.002 288C500.672 288 500.342 288 500.002 288C498.132 275.927 497.753 264.196 497.877 252C497.887 250.242 497.896 248.484 497.904 246.727C497.926 242.484 497.96 238.242 498.002 234Z" fill="#D13931"/>
<path d="M515 178C515.553 180.076 516 181.844 516 184C516.99 184.33 517.98 184.66 519 185C519 183.02 519 181.04 519 179C520.32 180.32 521.64 181.64 523 183C522.602 183.508 522.203 184.016 521.793 184.539C518.714 188.539 516.084 192.369 514 197C513.438 195.062 513.438 195.062 513 193C513.33 192.67 513.66 192.34 514 192C514.041 190.334 514.043 188.666 514 187C512.301 189.068 511.102 190.552 510.5 193.188C510.253 194.085 510.253 194.085 510 195C509.01 195.33 508.02 195.66 507 196C506.67 196.99 506.34 197.98 506 199C505.67 198.34 505.34 197.68 505 197C507.406 190.193 511.038 184 515 178Z" fill="#CF2F27"/>
<path d="M516 100C516.577 100.978 517.153 101.956 517.747 102.963C519.751 106.384 519.751 106.384 523.667 106.681C525.127 106.68 526.588 106.647 528.047 106.586C528.818 106.577 529.589 106.569 530.384 106.56C532.841 106.527 535.294 106.451 537.75 106.375C539.418 106.345 541.086 106.318 542.754 106.293C546.837 106.227 550.918 106.123 555 106C555.495 106.99 555.495 106.99 556 108C542.8 108 529.6 108 516 108C516 107.34 516 106.68 516 106C515.257 105.856 514.515 105.711 513.75 105.562C511.478 105.098 509.245 104.579 507 104C505.667 103.666 504.333 103.333 503 103C504.414 102.492 505.831 101.994 507.25 101.5C508.039 101.222 508.828 100.943 509.641 100.656C512 100 512 100 516 100Z" fill="#D43E35"/>
<path d="M502 385C506.189 385.761 510.225 386.878 514.312 388.062C516.194 388.606 516.194 388.606 518.113 389.16C519.542 389.576 519.542 389.576 521 390C521 390.33 521 390.66 521 391C519.375 391.027 517.75 391.046 516.125 391.062C515.22 391.074 514.315 391.086 513.383 391.098C511 391 511 391 509 390C509 390.66 509 391.32 509 392C509.66 392.33 510.32 392.66 511 393C510.34 393 509.68 393 509 393C509 393.66 509 394.32 509 395C514.94 396.485 514.94 396.485 521 398C521 398.66 521 399.32 521 400C514.16 399.484 508.361 397.514 502 395C502.33 394.34 502.66 393.68 503 393C504.65 393 506.3 393 508 393C508 392.01 508 391.02 508 390C507.34 390 506.68 390 506 390C506 389.34 506 388.68 506 388C504.68 387.67 503.36 387.34 502 387C502 386.34 502 385.68 502 385Z" fill="#CF3128"/>
<path d="M1005 312C1005.66 312.33 1006.32 312.66 1007 313C1009.59 313.122 1012.16 313.186 1014.75 313.205C1015.55 313.215 1016.35 313.225 1017.18 313.235C1019.83 313.267 1022.48 313.292 1025.13 313.316C1026.97 313.337 1028.8 313.358 1030.64 313.379C1035.48 313.435 1040.31 313.484 1045.15 313.532C1050.08 313.582 1055.02 313.638 1059.95 313.693C1069.63 313.801 1079.32 313.902 1089 314C1089 314.33 1089 314.66 1089 315C1059.96 315 1030.92 315 1001 315C1002.32 314.01 1003.64 313.02 1005 312Z" fill="#FBF6F2"/>
<path d="M572 184C576.244 186.122 577.474 192.742 579 197C580.367 202.051 581.102 206.764 581 212C580.01 212.33 579.02 212.66 578 213C576.887 209.662 577.193 209.227 578 206C578.039 203.667 578.045 201.333 578 199C576.639 199.773 576.639 199.773 575.25 200.562C572 202 572 202 569.625 201.688C569.089 201.461 568.553 201.234 568 201C568.99 201 569.98 201 571 201C571.33 200.01 571.66 199.02 572 198C572.33 197.34 572.66 196.68 573 196C573.66 196 574.32 196 575 196C575 194.35 575 192.7 575 191C574.34 191 573.68 191 573 191C572.67 191.66 572.34 192.32 572 193C572.33 191.02 572.66 189.04 573 187C572.34 186.67 571.68 186.34 571 186C571.33 185.34 571.66 184.68 572 184Z" fill="#CF312A"/>
<path d="M440 177C440.33 178.32 440.66 179.64 441 181C442.975 180.652 442.975 180.652 445 180C445.33 179.34 445.66 178.68 446 178C446.625 180.312 446.625 180.312 447 183C446.01 184.485 446.01 184.485 445 186C444.67 184.35 444.34 182.7 444 181C444 181.99 444 182.98 444 184C443.01 184 442.02 184 441 184C441.66 185.98 442.32 187.96 443 190C442.031 190.536 441.061 191.073 440.062 191.625C436.725 193.72 436.725 193.72 436.125 197.25C436.084 198.157 436.043 199.065 436 200C435.34 200 434.68 200 434 200C435.575 192.146 437.271 184.538 440 177Z" fill="#D13028"/>
<path d="M507 310C511.875 311.75 511.875 311.75 513 314C513.99 314 514.98 314 516 314C516.33 313.01 516.66 312.02 517 311C518.5 312.375 518.5 312.375 520 314C520 314.66 520 315.32 520 316C521.32 316.66 522.64 317.32 524 318C521.537 319.231 519.72 319.072 517 319C516.34 320.32 515.68 321.64 515 323C513.85 321.399 512.705 319.794 511.562 318.188C510.924 317.294 510.286 316.401 509.629 315.48C508 313 508 313 507 310Z" fill="#D2332A"/>
<path d="M440 294C440.33 294 440.66 294 441 294C441.366 295.56 441.718 297.123 442.062 298.688C442.26 299.558 442.457 300.428 442.66 301.324C443.02 304.16 442.709 306.248 442 309C441.34 309 440.68 309 440 309C440.062 310.423 440.062 310.423 440.125 311.875C440 315 440 315 438 317C437.327 314.585 436.662 312.168 436 309.75C435.714 308.727 435.714 308.727 435.422 307.684C434.5 304.294 434 301.542 434 298C434.66 298 435.32 298 436 298C436.33 300.64 436.66 303.28 437 306C437.66 306 438.32 306 439 306C438.979 304.948 438.959 303.896 438.938 302.812C438.989 299.673 439.265 297.031 440 294Z" fill="#D0302A"/>
<path d="M639 177C641 178 641 178 641.594 179.687C641.751 180.404 641.908 181.121 642.07 181.859C642.244 182.646 642.418 183.432 642.598 184.242C642.772 185.07 642.946 185.897 643.125 186.75C643.307 187.562 643.489 188.374 643.676 189.211C644.539 193.196 645.25 196.896 645 201C644.01 200.67 643.02 200.34 642 200C642.062 198.763 642.124 197.525 642.188 196.25C642.204 193.218 642.107 192.178 640.5 189.5C640.005 189.005 639.51 188.51 639 188C638.01 189.32 637.02 190.64 636 192C635.34 188.37 634.68 184.74 634 181C634.66 180.67 635.32 180.34 636 180C636.99 181.485 636.99 181.485 638 183C638.66 183.33 639.32 183.66 640 184C639.67 181.69 639.34 179.38 639 177Z" fill="#CD322B"/>
<path d="M437 206C437.99 206 438.98 206 440 206C439.867 207.125 439.734 208.251 439.598 209.41C438.456 219.267 437.555 229.092 437 239C436.67 239 436.34 239 436 239C435.67 233.39 435.34 227.78 435 222C434.67 222 434.34 222 434 222C434 220.02 434 218.04 434 216C434.66 216 435.32 216 436 216C436.33 212.7 436.66 209.4 437 206Z" fill="#CE2D26"/>
<path d="M503 104C503 104.66 503 105.32 503 106C502.01 106 501.02 106 500 106C500 106.99 500 107.98 500 109C499.34 109 498.68 109 498 109C498 110.98 498 112.96 498 115C498.66 115.33 499.32 115.66 500 116C496.535 117.485 496.535 117.485 493 119C493 118.34 493 117.68 493 117C492.34 116.67 491.68 116.34 491 116C492.32 115.34 493.64 114.68 495 114C494.34 113.01 493.68 112.02 493 111C491.35 111.33 489.7 111.66 488 112C491.917 108.572 497.522 104 503 104Z" fill="#D33029"/>
<path d="M1194 63C1199.35 63.3243 1202.28 66.497 1206 70C1201.7 71.3066 1198.4 70.6597 1194 70C1192.88 65.25 1192.88 65.25 1194 63Z" fill="#D52F27"/>
<path d="M509 390C510.459 390.087 511.918 390.195 513.375 390.312C514.593 390.4 514.593 390.4 515.836 390.488C518 391 518 391 520 394C518.68 394 517.36 394 516 394C516 394.66 516 395.32 516 396C517.32 395.67 518.64 395.34 520 395C520 395.99 520 396.98 520 398C518.742 397.876 517.484 397.753 516.188 397.625C515.126 397.521 515.126 397.521 514.043 397.414C512 397 512 397 509 395C508.812 392.375 508.812 392.375 509 390Z" fill="#DB241C"/>
<path d="M505 216C505.33 216 505.66 216 506 216C505.534 222.401 503.853 227.268 501 233C500.67 233 500.34 233 500 233C500 229.04 500 225.08 500 221C500.66 221 501.32 221 502 221C502.464 220.041 502.464 220.041 502.938 219.062C504 217 504 217 505 216Z" fill="#D9251C"/>
<path d="M598 380C600.625 380.938 600.625 380.938 603 382C599.172 386.187 595.054 389.378 590 392C589.34 392 588.68 392 588 392C587.67 391.01 587.34 390.02 587 389C588.65 389 590.3 389 592 389C592 388.34 592 387.68 592 387C592.66 386.34 593.32 385.68 594 385C594.495 383.979 594.495 383.979 595 382.938C596 381 596 381 598 380Z" fill="#D12F28"/>
<path d="M474 376C475.65 376 477.3 376 479 376C479.268 376.619 479.536 377.237 479.812 377.875C481.568 381.016 483.657 381.886 487 383C487 383.66 487 384.32 487 385C487.66 385 488.32 385 489 385C489 385.66 489 386.32 489 387C490.65 386.67 492.3 386.34 494 386C494.33 387.65 494.66 389.3 495 391C490.681 389.496 487.099 387.226 483.375 384.625C482.803 384.238 482.23 383.852 481.641 383.453C478.503 381.279 476.073 379.22 474 376Z" fill="#CF332D"/>
<path d="M566.848 105.902C568.898 105.935 570.949 105.967 573 106C573.33 107.98 573.66 109.96 574 112C565.09 110.02 565.09 110.02 556 108C556 107.67 556 107.34 556 107C557.299 107.021 558.599 107.041 559.938 107.062C561.292 107.084 562.648 107.071 564 107C565 106 565 106 566.848 105.902Z" fill="#D23026"/>
<path d="M447 321C448.791 323.686 449.661 325.663 450.625 328.688C450.885 329.496 451.146 330.304 451.414 331.137C451.607 331.752 451.801 332.366 452 333C450.68 332.67 449.36 332.34 448 332C448.206 332.928 448.412 333.856 448.625 334.812C449 338 449 338 447 341C446.01 338.03 445.02 335.06 444 332C444.66 332 445.32 332 446 332C446 331.01 446 330.02 446 329C446.99 329 447.98 329 449 329C449 328.34 449 327.68 449 327C448.34 327 447.68 327 447 327C447 325.02 447 323.04 447 321Z" fill="#CD332D"/>
<path d="M502 208C502.33 208 502.66 208 503 208C503.33 209.98 503.66 211.96 504 214C505.32 214 506.64 214 508 214C507.67 217.96 507.34 221.92 507 226C506.67 226 506.34 226 506 226C505.67 223.03 505.34 220.06 505 217C504.319 217.99 504.319 217.99 503.625 219C503.089 219.66 502.553 220.32 502 221C501.34 221 500.68 221 500 221C500.52 216.621 501.057 212.312 502 208Z" fill="#CE3129"/>
<path d="M1206 97C1207.67 96.9573 1209.33 96.9594 1211 97C1211.33 97.33 1211.66 97.66 1212 98C1212.99 98.33 1213.98 98.66 1215 99C1215 100.32 1215 101.64 1215 103C1214.34 103 1213.68 103 1213 103C1212.67 104.65 1212.34 106.3 1212 108C1209.14 104.59 1207.65 101.093 1206 97Z" fill="#D32C22"/>
<path d="M493 110C493.99 110.99 494.98 111.98 496 113C495.34 114.32 494.68 115.64 494 117C493.67 117 493.34 117 493 117C493 117.66 493 118.32 493 119C491.02 118.34 489.04 117.68 487 117C487 115.68 487 114.36 487 113C489 112 491 111 493 110Z" fill="#D8261B"/>
<path d="M566 176C570.875 180.625 570.875 180.625 572 184C571.01 184.33 570.02 184.66 569 185C568.67 184.01 568.34 183.02 568 182C567.34 183.98 566.68 185.96 566 188C564.68 186.68 563.36 185.36 562 184C563.32 182.68 564.64 181.36 566 180C565.34 179.34 564.68 178.68 564 178C564.66 178 565.32 178 566 178C566 177.34 566 176.68 566 176Z" fill="#D0332C"/>
<path d="M1214 366C1215.44 371.748 1215.41 375.588 1213 381C1213 381.66 1213 382.32 1213 383C1211.35 382.67 1209.7 382.34 1208 382C1209.98 376.72 1211.96 371.44 1214 366Z" fill="#D03830"/>
<path d="M577 108C579.5 109.375 579.5 109.375 582 111C582 111.66 582 112.32 582 113C582.66 113 583.32 113 584 113C584 113.66 584 114.32 584 115C585.32 115 586.64 115 588 115C588.33 115.99 588.66 116.98 589 118C584.279 116.457 579.583 114.922 575 113C575.66 111.35 576.32 109.7 577 108Z" fill="#D42F29"/>
<path d="M1266 80C1268.16 83.2346 1268.81 85.6707 1269.69 89.4375C1269.96 90.5706 1270.23 91.7037 1270.51 92.8711C1270.96 95.7492 1270.98 97.3103 1270 100C1270 99.34 1270 98.68 1270 98C1269.34 98 1268.68 98 1268 98C1266.13 94.1523 1266 92.1162 1267 88C1266.67 87.34 1266.34 86.68 1266 86C1265.96 84.0004 1265.96 81.9995 1266 80Z" fill="#CF362F"/>
<path d="M611 362C611.75 363.75 611.75 363.75 612 366C610.062 368.25 610.062 368.25 608 370C608.33 370.66 608.66 371.32 609 372C607.927 372.289 606.855 372.578 605.75 372.875C602.906 373.728 600.565 374.564 598 376C600.772 372.23 603.8 369.35 607.414 366.43C609.249 364.894 609.249 364.894 611 362Z" fill="#CF3028"/>
<path d="M222 300C222.33 300 222.66 300 223 300C223 310.375 223 310.375 222 314C221.67 313.67 221.34 313.34 221 313C220.34 313.66 219.68 314.32 219 315C217.852 313.359 217.852 313.359 217 311C217.898 308.203 217.898 308.203 219.375 305.25C219.857 304.265 220.339 303.28 220.836 302.266C221.22 301.518 221.604 300.77 222 300Z" fill="#D12C24"/>
<path d="M429 264C429.33 264 429.66 264 430 264C430 268.95 430 273.9 430 279C428.35 279 426.7 279 425 279C425.547 275.625 426.055 273.918 428 271C428.394 268.676 428.735 266.342 429 264Z" fill="#FAF2F0"/>
<path d="M621 138C621.99 138.33 622.98 138.66 624 139C623.34 140.32 622.68 141.64 622 143C622 142.34 622 141.68 622 141C621.01 141.495 621.01 141.495 620 142C619.348 144.025 619.348 144.025 619 146C619.66 146 620.32 146 621 146C621.33 147.65 621.66 149.3 622 151C618.664 148.009 616.849 145.068 615 141C616.98 140.67 618.96 140.34 621 140C621 139.34 621 138.68 621 138ZM621 144C621.99 144.495 621.99 144.495 623 145C622.01 145.495 622.01 145.495 621 146C621 145.34 621 144.68 621 144Z" fill="#D0352E"/>
<path d="M490 378C493.96 379.98 497.92 381.96 502 384C502 384.33 502 384.66 502 385C497.131 384.404 492.672 383.43 488 382C488.66 380.68 489.32 379.36 490 378Z" fill="#D12D26"/>
<path d="M553 170C554.32 170 555.64 170 557 170C557 170.99 557 171.98 557 173C559.31 173.33 561.62 173.66 564 174C563.01 174.495 563.01 174.495 562 175C561.67 175.66 561.34 176.32 561 177C560.67 176.67 560.34 176.34 560 176C558.314 175.928 556.625 175.916 554.938 175.938C554.018 175.947 553.099 175.956 552.152 175.965C551.442 175.976 550.732 175.988 550 176C550.495 175.381 550.99 174.762 551.5 174.125C553.192 172.161 553.192 172.161 553 170Z" fill="#D9231A"/>
<path d="M551 330C552.675 330.286 554.344 330.618 556 331C551.334 334.111 547.204 334.123 541.688 334.062C540.619 334.053 539.55 334.044 538.449 334.035C537.641 334.024 536.833 334.012 536 334C540.93 331.484 544.446 331 550 331C550.33 330.67 550.66 330.34 551 330Z" fill="#CD433A"/>
<path d="M633 321C633.66 321.66 634.32 322.32 635 323C634.672 326.767 633.871 329.726 632 333C631.67 333.66 631.34 334.32 631 335C630.34 335 629.68 335 629 335C628.67 335.66 628.34 336.32 628 337C628.657 333.218 629.72 329.782 631.062 326.188C631.425 325.212 631.787 324.236 632.16 323.23C632.576 322.126 632.576 322.126 633 321Z" fill="#CF372E"/>
<path d="M505 264C505.33 264 505.66 264 506 264C506 268.95 506 273.9 506 279C504.68 279.33 503.36 279.66 502 280C501.67 282.64 501.34 285.28 501 288C500.67 288 500.34 288 500 288C499.875 280.375 499.875 280.375 501 277C502.98 277.495 502.98 277.495 505 278C505 273.38 505 268.76 505 264Z" fill="#CA372E"/>
<path d="M337.999 259C340.121 261.122 340.929 262.773 342.124 265.5C342.477 266.294 342.83 267.088 343.194 267.906C343.999 270 343.999 270 343.999 272C342.349 271.67 340.699 271.34 338.999 271C338.017 266.947 337.917 263.161 337.999 259Z" fill="#CF342C"/>
<path d="M471 362C472.129 362.933 473.253 363.871 474.375 364.812C475.001 365.335 475.628 365.857 476.273 366.395C478 368 478 368 480 371C479.01 371.495 479.01 371.495 478 372C478 371.34 478 370.68 478 370C476.855 369.907 476.855 369.907 475.688 369.812C473 369 473 369 471.125 366.562C470.754 365.717 470.382 364.871 470 364C470.33 363.34 470.66 362.68 471 362Z" fill="#D0352E"/>
<path d="M87 73C87.99 73.66 88.98 74.32 90 75C88.7516 76.106 87.5012 77.2097 86.25 78.3125C85.5539 78.9274 84.8578 79.5423 84.1406 80.1758C82.1489 81.8731 80.111 83.4548 78 85C78.33 83.68 78.66 82.36 79 81C79.66 81 80.32 81 81 81C81.33 79.68 81.66 78.36 82 77C82.66 77 83.32 77 84 77C84 76.34 84 75.68 84 75C84.99 75 85.98 75 87 75C87 74.34 87 73.68 87 73Z" fill="#CC352D"/>
<path d="M1260 417C1260.66 417.66 1261.32 418.32 1262 419C1260.8 422.083 1259.52 425.063 1258 428C1257.34 428 1256.68 428 1256 428C1255.67 429.32 1255.34 430.64 1255 432C1254.34 432 1253.68 432 1253 432C1254.37 428.458 1255.91 425.074 1257.62 421.688C1258.29 420.363 1258.29 420.363 1258.98 419.012C1259.31 418.348 1259.65 417.684 1260 417Z" fill="#FAF0EA"/>
<path d="M463.001 352C466.256 355.023 468.619 358.257 471.001 362C470.403 361.67 469.805 361.34 469.188 361C466.947 359.792 466.947 359.792 464.001 360C462.001 357 462.001 357 462.376 354.312C462.582 353.549 462.788 352.786 463.001 352Z" fill="#D12D26"/>
<path d="M620 350C623.161 351.37 623.993 351.989 626 355C625.34 356.32 624.68 357.64 624 359C623.34 358.34 622.68 357.68 622 357C622 356.01 622 355.02 622 354C621.34 354 620.68 354 620 354C619.67 354.66 619.34 355.32 619 356C618.34 355.34 617.68 354.68 617 354C617.99 352.68 618.98 351.36 620 350Z" fill="#D43029"/>
<path d="M457 348C460 348 460 348 461.688 349.5C462.121 349.995 462.554 350.49 463 351C461.625 352.5 461.625 352.5 460 354C459.34 354 458.68 354 458 354C457.67 355.32 457.34 356.64 457 358C456.01 356.02 455.02 354.04 454 352C454.99 352 455.98 352 457 352C457 350.68 457 349.36 457 348Z" fill="#D12E27"/>
<path d="M440 294C440.33 294 440.66 294 441 294C441.366 295.56 441.718 297.123 442.062 298.688C442.26 299.558 442.457 300.428 442.66 301.324C443.02 304.16 442.709 306.248 442 309C439.125 306.125 439.164 302.895 439 299C439.438 296 439.438 296 440 294Z" fill="#D33932"/>
<path d="M595 119C597.494 120.204 599.681 121.454 602 123C602 124.32 602 125.64 602 127C598.421 125.348 595.252 123.217 592 121C592.99 120.34 593.98 119.68 595 119Z" fill="#D23129"/>
<path d="M480 121C480.99 121.33 481.98 121.66 483 122C483.33 123.32 483.66 124.64 484 126C481.36 127.98 478.72 129.96 476 132C476 131.01 476 130.02 476 129C477.32 128.67 478.64 128.34 480 128C479.722 126.824 479.722 126.824 479.438 125.625C479 123 479 123 480 121Z" fill="#D22A22"/>
<path d="M1200 474.001C1200 474.991 1200 475.981 1200 477.001C1196.77 479.152 1195.72 479.201 1192 479.001C1192 477.334 1192 475.667 1192 474.001C1195.29 473.201 1196.71 472.904 1200 474.001Z" fill="#FAF3F0"/>
<path d="M185 371C186.32 371 187.64 371 189 371C189 371.99 189 372.98 189 374C189.66 374.33 190.32 374.66 191 375C190.427 377.867 190.139 378.861 188 381C188 380.34 188 379.68 188 379C187.01 379 186.02 379 185 379C185.66 377.02 186.32 375.04 187 373C186.34 372.34 185.68 371.68 185 371Z" fill="#D42F29"/>
<path d="M565 314C566.32 314 567.64 314 569 314C569.33 315.65 569.66 317.3 570 319C568.35 319 566.7 319 565 319C564.67 319.66 564.34 320.32 564 321C563.375 319.188 563.375 319.188 563 317C563.66 316.01 564.32 315.02 565 314Z" fill="#D8241B"/>
<path d="M440 177C440.33 178.32 440.66 179.64 441 181C442.975 180.652 442.975 180.652 445 180C445.33 179.34 445.66 178.68 446 178C446.625 180.312 446.625 180.312 447 183C446.01 184.485 446.01 184.485 445 186C444.67 184.35 444.34 182.7 444 181C444 181.99 444 182.98 444 184C442.02 184 440.04 184 438 184C438.66 181.69 439.32 179.38 440 177Z" fill="#D13831"/>
<path d="M574 96C575.5 97.25 575.5 97.25 577 99C577 100.32 577 101.64 577 103C572.545 102.01 572.545 102.01 568 101C568.66 99.68 569.32 98.36 570 97C571.32 97.33 572.64 97.66 574 98C574 97.34 574 96.68 574 96Z" fill="#F8F2F2"/>
<path d="M1212 78C1215.08 80.7728 1216.69 83.0633 1218 87C1216.02 87 1214.04 87 1212 87C1212 84.03 1212 81.06 1212 78Z" fill="#D13028"/>
<path d="M1169 49C1173.85 49.591 1177.61 50.9794 1182 53C1182 53.33 1182 53.66 1182 54C1178.37 54 1174.74 54 1171 54C1171 53.01 1171 52.02 1171 51C1170.34 51 1169.68 51 1169 51C1169 50.34 1169 49.68 1169 49Z" fill="#D02D21"/>
<path d="M28 404C30.6856 406.686 31.0605 409.376 32 413C30.68 413.33 29.36 413.66 28 414C26.875 406.25 26.875 406.25 28 404Z" fill="#D02E25"/>
<path d="M504 200C504.33 200.66 504.66 201.32 505 202C505.66 202 506.32 202 507 202C507.33 201.34 507.66 200.68 508 200C508 200.99 508 201.98 508 203C507.34 203 506.68 203 506 203C506.186 203.784 506.371 204.568 506.562 205.375C507 208 507 208 506 210C505.34 210 504.68 210 504 210C502.875 203.375 502.875 203.375 504 200Z" fill="#D42E27"/>
<path d="M1161 57C1161.66 57.66 1162.32 58.32 1163 59C1162.67 59.99 1162.34 60.98 1162 62C1162.66 61.34 1163.32 60.68 1164 60C1164.99 60 1165.98 60 1167 60C1167.33 61.32 1167.66 62.64 1168 64C1159.43 63.1429 1159.43 63.1429 1156 61C1156.99 60.67 1157.98 60.34 1159 60C1159.66 59.01 1160.32 58.02 1161 57Z" fill="#D2372E"/>
<path d="M56.9991 350C58.7919 353.119 59.342 355.677 59.6241 359.25C59.6989 360.142 59.7737 361.034 59.8507 361.953C59.9242 362.966 59.9242 362.966 59.9991 364C59.0091 364 58.0191 364 56.9991 364C56.8028 362.418 56.6175 360.834 56.4366 359.25C56.3322 358.368 56.2278 357.487 56.1202 356.578C56.0046 354.116 56.2627 352.335 56.9991 350Z" fill="#D12E27"/>
<path d="M508 182C509.32 182.66 510.64 183.32 512 184C510.35 187.3 508.7 190.6 507 194C506.34 193.67 505.68 193.34 505 193C505 192.34 505 191.68 505 191C505.66 191 506.32 191 507 191C506.794 190.257 506.587 189.515 506.375 188.75C505.956 185.677 506.381 184.572 508 182Z" fill="#F8ECEA"/>
<path d="M462 135C462.33 135.66 462.66 136.32 463 137C463.66 137 464.32 137 465 137C465 137.99 465 138.98 465 140C461.04 141.98 461.04 141.98 457 144C458.249 140.541 459.675 137.853 462 135Z" fill="#D1332C"/>
<path d="M60 114C60.66 114.33 61.32 114.66 62 115C60.515 121.435 60.515 121.435 59 128C58.34 127.67 57.68 127.34 57 127C57 124.03 57 121.06 57 118C57.66 118 58.32 118 59 118C59.33 116.68 59.66 115.36 60 114Z" fill="#CD2D25"/>
<path d="M1186 408C1186.99 408.33 1187.98 408.66 1189 409C1188.34 409.66 1187.68 410.32 1187 411C1187.33 411.66 1187.66 412.32 1188 413C1185.19 414.125 1185.19 414.125 1182 415C1181.01 414.34 1180.02 413.68 1179 413C1180.09 412.133 1181.2 411.282 1182.31 410.438C1182.93 409.962 1183.54 409.486 1184.18 408.996C1184.78 408.667 1185.38 408.339 1186 408Z" fill="#CF2E25"/>
<path d="M10 397C12.475 397.99 12.475 397.99 15 399C14.67 402.3 14.34 405.6 14 409C12.0968 406.145 11.5381 404.581 10.875 401.312C10.7074 400.504 10.5398 399.696 10.3672 398.863C10.246 398.248 10.1248 397.634 10 397Z" fill="#CE2F26"/>
<path d="M622 136C623.65 136 625.3 136 627 136C628.034 139.747 628.257 142.228 627 146C626.161 144.712 625.329 143.419 624.5 142.125C624.036 141.406 623.572 140.686 623.094 139.945C622 138 622 138 622 136Z" fill="#F8F1ED"/>
<path d="M506 108C510.29 108 514.58 108 519 108C515.801 109.599 513.645 110.426 510.25 111.125C509.451 111.293 508.652 111.46 507.828 111.633C507.225 111.754 506.622 111.875 506 112C506 110.667 506 109.333 506 108Z" fill="#D02E26"/>
<path d="M1199 458C1197.02 458.99 1197.02 458.99 1195 460C1196.32 460.66 1197.64 461.32 1199 462C1196.36 462.33 1193.72 462.66 1191 463C1190.34 462.01 1189.68 461.02 1189 460C1189.99 460 1190.98 460 1192 460C1192 459.34 1192 458.68 1192 458C1196.75 456.875 1196.75 456.875 1199 458ZM1187 461C1189 462 1189 462 1189 462L1187 461Z" fill="#D52E29"/>
<path d="M41.0005 428C43.648 430.578 45.9448 432.916 48.0005 436C45.6905 436 43.3805 436 41.0005 436C40.201 432.713 39.9039 431.29 41.0005 428Z" fill="#D23932"/>
<path d="M1173 416C1173.66 416.33 1174.32 416.66 1175 417C1174.67 418.65 1174.34 420.3 1174 422C1169.55 421.01 1169.55 421.01 1165 420C1167.69 418.208 1169.95 417.016 1173 416Z" fill="#D1342B"/>
<path d="M505 303C506.423 303.278 506.423 303.278 507.875 303.562C510.899 304.287 510.899 304.287 513 303C513.33 304.32 513.66 305.64 514 307C513.402 306.814 512.804 306.629 512.188 306.438C509.836 305.779 509.836 305.779 507 307C506.67 307.66 506.34 308.32 506 309C505.67 307.02 505.34 305.04 505 303Z" fill="#D2312B"/>
<path d="M434 256C437 259 437 259 437.293 262.137C437.258 263.308 437.223 264.48 437.188 265.688C437.16 266.867 437.133 268.046 437.105 269.262C437.071 270.165 437.036 271.069 437 272C436.67 272 436.34 272 436 272C435.67 270.02 435.34 268.04 435 266C434.67 266 434.34 266 434 266C434 262.7 434 259.4 434 256Z" fill="#CB3427"/>
<path d="M112 43C113.32 43 114.64 43 116 43C116 43.66 116 44.32 116 45C117.32 45.33 118.64 45.66 120 46C115.71 46.66 111.42 47.32 107 48C107 47.01 107 46.02 107 45C108.65 45 110.3 45 112 45C112 44.34 112 43.68 112 43Z" fill="#FCF2ED"/>
<path d="M1207 383C1207.66 383.33 1208.32 383.66 1209 384C1208.62 385.938 1208.62 385.938 1208 388C1207.01 388.495 1207.01 388.495 1206 389C1205.88 389.619 1205.75 390.238 1205.62 390.875C1204.8 393.674 1203.4 394.453 1201 396C1200.34 395.67 1199.68 395.34 1199 395C1199.49 394.301 1199.99 393.603 1200.5 392.883C1201.14 391.973 1201.78 391.063 1202.44 390.125C1203.08 389.22 1203.71 388.315 1204.37 387.383C1206 385.123 1206 385.123 1207 383Z" fill="#CE3F39"/>
<path d="M626 341C626.99 341 627.98 341 629 341C629 343.64 629 346.28 629 349C626.03 348.505 626.03 348.505 623 348C623.66 347.67 624.32 347.34 625 347C625.658 343.971 625.658 343.971 626 341Z" fill="#DA241C"/>
<path d="M448 331C449.32 331.66 450.64 332.32 452 333C451.34 335.64 450.68 338.28 450 341C449.34 341 448.68 341 448 341C447.806 339.522 447.62 338.042 447.438 336.562C447.333 335.739 447.229 334.915 447.121 334.066C447.081 333.384 447.041 332.703 447 332C447.33 331.67 447.66 331.34 448 331Z" fill="#D9241A"/>
<path d="M636 310C636.66 310 637.32 310 638 310C638.33 312.97 638.66 315.94 639 319C638.67 318.34 638.34 317.68 638 317C637.34 317 636.68 317 636 317C636 317.99 636 318.98 636 320C635.34 320 634.68 320 634 320C634.66 316.7 635.32 313.4 636 310Z" fill="#CF332C"/>
<path d="M225.001 294C225.661 294.99 226.321 295.98 227.001 297C227.991 296.34 228.981 295.68 230.001 295C228.877 297.972 227.778 300.334 226.001 303C225.341 303 224.681 303 224.001 303C223.192 300.085 222.783 298.539 223.939 295.688C224.289 295.131 224.64 294.574 225.001 294Z" fill="#D13229"/>
<path d="M356 184C356.66 184.66 357.32 185.32 358 186C357.938 189 357.938 189 357 192C354.438 193.375 354.438 193.375 352 194C353.109 190.513 354.263 187.225 356 184Z" fill="#FBF5F2"/>
<path d="M441 171C443.97 171.33 446.94 171.66 450 172C449.34 174.64 448.68 177.28 448 180C447.66 179.165 447.66 179.165 447.312 178.312C445.641 175.368 443.447 173.318 441 171Z" fill="#D12F26"/>
<path d="M629 153C628.744 155.343 628.407 157.678 628 160C627.01 160.495 627.01 160.495 626 161C625.01 158.69 624.02 156.38 623 154C625.076 153.447 626.844 153 629 153Z" fill="#D03028"/>
<path d="M192 110C192.99 110 193.98 110 195 110C195 110.66 195 111.32 195 112C195.66 112.33 196.32 112.66 197 113C197.414 115.066 197.414 115.066 197.625 117.562C197.7 118.389 197.775 119.215 197.852 120.066C197.901 120.704 197.95 121.343 198 122C195.252 118.598 192 114.515 192 110Z" fill="#CE2D27"/>
<path d="M1252 392C1252.33 392 1252.66 392 1253 392C1253.84 396.018 1254.05 399.018 1253 403C1251.68 403.33 1250.36 403.66 1249 404C1249.99 400.04 1250.98 396.08 1252 392Z" fill="#CE3730"/>
<path d="M372 333C374.154 335.622 375.401 337.644 376 341C374.68 341 373.36 341 372 341C372 340.01 372 339.02 372 338C371.34 337.67 370.68 337.34 370 337C370.66 335.68 371.32 334.36 372 333Z" fill="#CF312B"/>
<path d="M573 210C574.32 210.66 575.64 211.32 577 212C576.34 212 575.68 212 575 212C575.206 212.928 575.412 213.856 575.625 214.812C576 218 576 218 574 221C574 218.69 574 216.38 574 214C572.68 214 571.36 214 570 214C570 213.34 570 212.68 570 212C570.99 212 571.98 212 573 212C573 211.34 573 210.68 573 210Z" fill="#D33A34"/>
<path d="M42 125C42.6394 125.495 43.2787 125.99 43.9375 126.5C45.7097 128.098 45.7097 128.098 47 128C47 129.98 47 131.96 47 134C46.34 133.34 45.68 132.68 45 132C44.01 132.33 43.02 132.66 42 133C42 130.36 42 127.72 42 125Z" fill="#D3312B"/>
<path d="M591.625 104.875C592.409 104.916 593.193 104.957 594 105C594.33 105.66 594.66 106.32 595 107C594.34 107 593.68 107 593 107C593 107.66 593 108.32 593 109C593.66 109 594.32 109 595 109C595 109.66 595 110.32 595 111C589.25 109.25 589.25 109.25 587 107C589 105 589 105 591.625 104.875Z" fill="#F9EEEB"/>
<path d="M1209 409C1209.66 409.99 1210.32 410.98 1211 412C1209.81 414 1209.81 414 1208 416C1205.31 416.25 1205.31 416.25 1203 416C1204.98 413.69 1206.96 411.38 1209 409Z" fill="#FBF7F6"/>
<path d="M88 408C89.4828 408.785 90.9611 409.578 92.4375 410.375C93.6731 411.036 93.6731 411.036 94.9336 411.711C97 413 97 413 98 415C96.35 415.33 94.7 415.66 93 416C93.33 415.01 93.66 414.02 94 413C93.34 413 92.68 413 92 413C91.67 413.66 91.34 414.32 91 415C90.67 413.35 90.34 411.7 90 410C89.34 410 88.68 410 88 410C88 409.34 88 408.68 88 408Z" fill="#CE312B"/>
<path d="M641 296C641.66 296 642.32 296 643 296C644.158 299.473 644.069 302.361 644 306C643.01 305.34 642.02 304.68 641 304C640.592 301.288 640.867 298.756 641 296Z" fill="#DC231B"/>
<path d="M516 178C516.99 178 517.98 178 519 178C519 180.31 519 182.62 519 185C517.68 184.67 516.36 184.34 515 184C515.33 182.02 515.66 180.04 516 178Z" fill="#D9251A"/>
<path d="M553 164C553.33 165.32 553.66 166.64 554 168C548.72 167.34 543.44 166.68 538 166C538 165.67 538 165.34 538 165C539.562 164.83 541.125 164.664 542.688 164.5C543.558 164.407 544.428 164.314 545.324 164.219C547.897 164.008 550.42 163.963 553 164Z" fill="#F5DEDB"/>
<path d="M268 109C270.19 112.285 270.998 115.207 272 119C271.01 119.495 271.01 119.495 270 120C269.67 119.01 269.34 118.02 269 117C268.34 117.66 267.68 118.32 267 119C267.33 115.7 267.66 112.4 268 109Z" fill="#D22F2A"/>
<path d="M575 389C574.67 389.66 574.34 390.32 574 391C574.99 391.66 575.98 392.32 577 393C574.69 393 572.38 393 570 393C570 392.34 570 391.68 570 391C568.68 390.67 567.36 390.34 566 390C572.75 387.875 572.75 387.875 575 389Z" fill="#D02F27"/>
<path d="M504 388.999C502.25 392.874 502.25 392.874 500 393.999C497.375 393.062 497.375 393.062 495 391.999C497.61 388.519 499.831 388.721 504 388.999Z" fill="#D13027"/>
<path d="M355 303C356.32 303 357.64 303 359 303C360.068 304.965 361.066 306.969 362 309C361.67 309.66 361.34 310.32 361 311C360.01 311 359.02 311 358 311C357.876 309.866 357.753 308.731 357.625 307.562C357.419 306.387 357.213 305.211 357 304C356.34 303.67 355.68 303.34 355 303Z" fill="#D22E27"/>
<path d="M355 294C357.64 294.33 360.28 294.66 363 295C361.35 296.98 359.7 298.96 358 301C356.254 298.381 355.613 296.962 355 294Z" fill="#F8F5F1"/>
<path d="M563 176C563.99 176 564.98 176 566 176C566.33 177.65 566.66 179.3 567 181C565.35 181.66 563.7 182.32 562 183C561.67 181.68 561.34 180.36 561 179C561.66 179 562.32 179 563 179C563 178.01 563 177.02 563 176Z" fill="#D9241B"/>
<path d="M453 150C454.32 150 455.64 150 457 150C457.33 152.31 457.66 154.62 458 157C456.68 157 455.36 157 454 157C454.33 156.34 454.66 155.68 455 155C454.67 154.67 454.34 154.34 454 154C453.638 152.674 453.303 151.341 453 150Z" fill="#D7241B"/>
<path d="M491 120C491.66 120.33 492.32 120.66 493 121C488.569 126.785 488.569 126.785 485.688 127.875C484.852 127.937 484.852 127.937 484 128C484 127.01 484 126.02 484 125C485.531 123.613 485.531 123.613 487.5 122.312C488.15 121.876 488.799 121.439 489.469 120.988C489.974 120.662 490.479 120.336 491 120Z" fill="#F8EFEA"/>
<path d="M28 44C28.33 44.66 28.66 45.32 29 46C28.2227 48.1641 28.2227 48.1641 27.0625 50.625C26.6822 51.4423 26.302 52.2595 25.9102 53.1016C25.6098 53.728 25.3095 54.3545 25 55C24.01 55 23.02 55 22 55C23.4504 50.8904 25.5111 47.5674 28 44Z" fill="#CD3A35"/>
<path d="M108 49.0002C106.02 49.6602 104.04 50.3202 102 51.0002C102.33 51.9902 102.66 52.9802 103 54.0002C100.69 53.6702 98.38 53.3402 96 53.0002C99.287 50.2188 103.753 46.8768 108 49.0002Z" fill="#CE3832"/>
<path d="M1245 437C1245.66 437 1246.32 437 1247 437C1246.65 440.242 1246.44 441.615 1243.94 443.812C1243.3 444.204 1242.66 444.596 1242 445C1241.67 443.35 1241.34 441.7 1241 440C1242.32 440 1243.64 440 1245 440C1245 439.01 1245 438.02 1245 437Z" fill="#D2302A"/>
<path d="M48 379C52 381 52 381 53.375 383.438C53.6844 384.706 53.6844 384.706 54 386C53.01 387.485 53.01 387.485 52 389C50.68 385.7 49.36 382.4 48 379Z" fill="#CF3932"/>
<path d="M355 180C356.188 181.625 356.188 181.625 357 184C355.625 187.25 355.625 187.25 354 190C353.67 190 353.34 190 353 190C353 187.36 353 184.72 353 182C353.66 182 354.32 182 355 182C355 181.34 355 180.68 355 180Z" fill="#D0342B"/>
<path d="M202 136C202.66 136 203.32 136 204 136C206 139 206 139 205.625 141.688C205.419 142.451 205.213 143.214 205 144C204.34 142.68 203.68 141.36 203 140C202.34 140 201.68 140 201 140C201.33 138.68 201.66 137.36 202 136Z" fill="#FAF4F1"/>
<path d="M503 104C503 104.66 503 105.32 503 106C502.01 106 501.02 106 500 106C500 106.99 500 107.98 500 109C498.188 109.625 498.188 109.625 496 110C495.01 109.34 494.02 108.68 493 108C494.289 107.328 495.581 106.663 496.875 106C497.594 105.629 498.314 105.257 499.055 104.875C501 104 501 104 503 104Z" fill="#CE362F"/>
<path d="M1227 368C1227.66 368 1228.32 368 1229 368C1229.62 370.312 1229.62 370.312 1230 373C1229.01 374.485 1229.01 374.485 1228 376C1228 375.01 1228 374.02 1228 373C1227.01 372.67 1226.02 372.34 1225 372C1225 371.34 1225 370.68 1225 370C1225.66 370 1226.32 370 1227 370C1227 369.34 1227 368.68 1227 368Z" fill="#D12D25"/>
<path d="M554 168C561.571 171 561.571 171 564 174C561.69 173.67 559.38 173.34 557 173C557 172.01 557 171.02 557 170C556.01 170 555.02 170 554 170C554 169.34 554 168.68 554 168Z" fill="#CE352D"/>
<path d="M477 131C477 132.667 477 134.333 477 136C476.34 136 475.68 136 475 136C475 136.99 475 137.98 475 139C473.68 138.67 472.36 138.34 471 138C472.98 135.69 474.96 133.38 477 131Z" fill="#F2DFDD"/>
<path d="M315 111C317.139 113.139 317.427 114.133 318 117C316.68 117 315.36 117 314 117C314 117.99 314 118.98 314 120C313.34 120 312.68 120 312 120C312.99 117.03 313.98 114.06 315 111Z" fill="#CE372E"/>
<path d="M77 10.0001C76.01 11.4851 76.01 11.4851 75 13.0001C72.69 12.6701 70.38 12.3401 68 12.0001C72.8621 8.75874 72.8621 8.75874 77 10.0001Z" fill="#D1352E"/>
<path d="M1214 402C1214.33 402 1214.66 402 1215 402C1215.26 405.146 1215.25 406.618 1213.5 409.312C1212.76 410.148 1212.76 410.148 1212 411C1212 410.34 1212 409.68 1212 409C1211.34 409 1210.68 409 1210 409C1211.2 406.506 1212.45 404.319 1214 402Z" fill="#F9ECEA"/>
<path d="M57 393C60.6723 396.08 61.568 398.248 62 403C58.9191 400.227 57.3122 397.937 56 394C56.33 393.67 56.66 393.34 57 393Z" fill="#CD3731"/>
<path d="M299.998 340C302.684 342.686 303.059 345.376 303.998 349C303.008 349 302.018 349 300.998 349C298.873 343.375 298.873 343.375 299.998 340Z" fill="#F9F1ED"/>
<path d="M289 313C292 316.75 292 316.75 292 319C290.35 319 288.7 319 287 319C287.875 314.125 287.875 314.125 289 313Z" fill="#F8E2DB"/>
<path d="M637 192C637.99 192.33 638.98 192.66 640 193C639.67 196.96 639.34 200.92 639 205C638.67 205 638.34 205 638 205C637.67 200.71 637.34 196.42 637 192Z" fill="#CD3530"/>
<path d="M516 101C511.378 103.219 508.232 104.383 503 104C507.166 101.223 511.064 99.1019 516 101Z" fill="#CC3A33"/>
<path d="M27 74C27.66 74.33 28.32 74.66 29 75C27.515 80.445 27.515 80.445 26 86C25.67 86 25.34 86 25 86C25.141 84.3746 25.2879 82.7497 25.4375 81.125C25.5187 80.2201 25.5999 79.3152 25.6836 78.3828C26 76 26 76 27 74Z" fill="#CB3229"/>
<path d="M1182 72C1185.06 73.7356 1187.63 75.3847 1190 78C1188.35 78.33 1186.7 78.66 1185 79C1182 74.25 1182 74.25 1182 72Z" fill="#FAEEEB"/>
<path d="M41 49C41.66 49.99 42.32 50.98 43 52C41.35 53.65 39.7 55.3 38 57C37.67 55.68 37.34 54.36 37 53C38.32 52.34 39.64 51.68 41 51C41 50.34 41 49.68 41 49Z" fill="#D23027"/>
<path d="M453 352C454.376 353.29 455.708 354.627 457 356C457 356.66 457 357.32 457 358C455.02 358 453.04 358 451 358C451.66 356.02 452.32 354.04 453 352Z" fill="#F9EFEC"/>
<path d="M572 316C572.33 316.66 572.66 317.32 573 318C572.223 319.727 572.223 319.727 571.062 321.625C570.382 322.739 569.701 323.852 569 325C568.01 324.67 567.02 324.34 566 324C567.98 321.36 569.96 318.72 572 316Z" fill="#F7E8E4"/>
<path d="M571 299C571.33 299 571.66 299 572 299C572.33 302.3 572.66 305.6 573 309C572.34 309 571.68 309 571 309C571 308.34 571 307.68 571 307C570.34 307 569.68 307 569 307C569.523 304.237 570.109 301.674 571 299Z" fill="#CF3228"/>
<path d="M237 269C238.429 271.354 239.087 272.48 238.625 275.25C238.419 275.827 238.213 276.405 238 277C236.68 276.67 235.36 276.34 234 276C234.99 273.69 235.98 271.38 237 269Z" fill="#CF332C"/>
<path d="M444 181C444.66 181.33 445.32 181.66 446 182C445.67 183.32 445.34 184.64 445 186C444.34 186 443.68 186 443 186C442.67 186.99 442.34 187.98 442 189C441.34 187.02 440.68 185.04 440 183C441.32 183.33 442.64 183.66 444 184C444 183.01 444 182.02 444 181Z" fill="#D9231A"/>
<path d="M465 140C465.99 140.33 466.98 140.66 468 141C466.848 143.468 465.952 145.048 464 147C463.67 145.35 463.34 143.7 463 142C463.66 142 464.32 142 465 142C465 141.34 465 140.68 465 140Z" fill="#D2352E"/>
<path d="M78 416C80.3406 418.128 81.707 420.116 83 423C80.1156 421.707 78.1278 420.341 76 418C76.66 417.34 77.32 416.68 78 416Z" fill="#D0362E"/>
<path d="M609 373C609.99 373.33 610.98 373.66 612 374C610.35 375.98 608.7 377.96 607 380C606.67 379.01 606.34 378.02 606 377C606.33 376.34 606.66 375.68 607 375C607.66 375 608.32 375 609 375C609 374.34 609 373.68 609 373Z" fill="#CC3B31"/>
<path d="M568 180C570 183 570 183 569.625 185.688C569.419 186.451 569.213 187.214 569 188C568.01 187.67 567.02 187.34 566 187C566.875 182.25 566.875 182.25 568 180Z" fill="#DA2418"/>
<path d="M522 176C522.33 176.66 522.66 177.32 523 178C523.66 178 524.32 178 525 178C524.67 179.32 524.34 180.64 524 182C522.68 181.67 521.36 181.34 520 181C520 180.34 520 179.68 520 179C520.66 179 521.32 179 522 179C522 178.01 522 177.02 522 176Z" fill="#D5281D"/>
<path d="M598 114C604.875 117.75 604.875 117.75 606 120C604.35 120 602.7 120 601 120C601 119.01 601 118.02 601 117C600.01 117 599.02 117 598 117C598 116.01 598 115.02 598 114Z" fill="#CF3832"/>
<path d="M590 109C593.96 110.98 593.96 110.98 598 113C598 113.33 598 113.66 598 114C596.02 114 594.04 114 592 114C591.34 112.35 590.68 110.7 590 109Z" fill="#CB312A"/>
<path d="M1226 101C1228.47 101.495 1228.47 101.495 1231 102C1230.62 103.938 1230.62 103.938 1230 106C1229.01 106.495 1229.01 106.495 1228 107C1227.34 105.02 1226.68 103.04 1226 101Z" fill="#FBF5F3"/>
<path d="M54 91C52.25 96.75 52.25 96.75 50 99C50.33 97.35 50.66 95.7 51 94C50.34 94 49.68 94 49 94C49 93.34 49 92.68 49 92C52 91 52 91 54 91Z" fill="#F8EBE7"/>
<path d="M54 443C56.8844 444.293 58.8722 445.659 61 448C58.03 447.505 58.03 447.505 55 447C54.67 445.68 54.34 444.36 54 443Z" fill="#CE3932"/>
<path d="M38 444C40.0625 446.312 40.0625 446.312 42 449C41.67 449.99 41.34 450.98 41 452C39.35 450.02 37.7 448.04 36 446C36.66 446 37.32 446 38 446C38 445.34 38 444.68 38 444Z" fill="#CE2D27"/>
<path d="M1229 436C1229 438.333 1229 440.667 1229 443C1227.35 442.67 1225.7 442.34 1224 442C1225.65 440.02 1227.3 438.04 1229 436Z" fill="#CE332D"/>
<path d="M184 379C184.99 379.33 185.98 379.66 187 380C186.75 381.875 186.75 381.875 186 384C183.938 385.25 183.938 385.25 182 386C182.66 383.69 183.32 381.38 184 379Z" fill="#D12F27"/>
<path d="M483 373C486.465 374.98 486.465 374.98 490 377C490 377.33 490 377.66 490 378C488.02 378 486.04 378 484 378C483.67 376.35 483.34 374.7 483 373Z" fill="#CF352D"/>
<path d="M480 370C482.475 370.495 482.475 370.495 485 371C485 371.66 485 372.32 485 373C485.99 373.33 486.98 373.66 488 374C487.34 374.66 486.68 375.32 486 376C483.979 374.358 481.98 372.691 480 371C480 370.67 480 370.34 480 370Z" fill="#F7E5E1"/>
<path d="M452 162C452.66 162.33 453.32 162.66 454 163C453.01 165.97 452.02 168.94 451 172C450.34 170.68 449.68 169.36 449 168C449.99 167.67 450.98 167.34 452 167C452 165.35 452 163.7 452 162Z" fill="#CC3228"/>
<path d="M626 161C628.503 163.938 629.469 166.179 630 170C629.01 169.67 628.02 169.34 627 169C626.67 166.36 626.34 163.72 626 161Z" fill="#F9E7E4"/>
</g>
<defs>
<clipPath id="clip0_151_44">
<rect width="1280" height="479" fill="white"/>
</clipPath>
</defs>
</svg>
